<?xml version="1.0" encoding="utf-8" standalone="no"?>
<!DOCTYPE svg PUBLIC "-//W3C//DTD SVG 1.1//EN"
  "http://www.w3.org/Graphics/SVG/1.1/DTD/svg11.dtd">
<!-- Created with matplotlib (https://matplotlib.org/) -->
<svg height="324pt" version="1.1" viewBox="0 0 468 324" width="468pt" xmlns="http://www.w3.org/2000/svg" xmlns:xlink="http://www.w3.org/1999/xlink">
 <defs>
  <style type="text/css">
*{stroke-linecap:butt;stroke-linejoin:round;}
  </style>
 </defs>
 <g id="figure_1">
  <g id="patch_1">
   <path d="M 0 324 
L 468 324 
L 468 0 
L 0 0 
z
" style="fill:#ffffff;"/>
  </g>
  <g id="axes_1">
   <g id="patch_2">
    <path d="M 58.5 288.36 
L 421.2 288.36 
L 421.2 38.88 
L 58.5 38.88 
z
" style="fill:#ffffff;"/>
   </g>
   <g id="matplotlib.axis_1">
    <g id="xtick_1">
     <g id="line2d_1">
      <path clip-path="url(#p96a6d8ad86)" d="M 74.986364 288.36 
L 74.986364 38.88 
" style="fill:none;stroke:#b0b0b0;stroke-linecap:square;stroke-width:0.8;"/>
     </g>
     <g id="line2d_2">
      <defs>
       <path d="M 0 0 
L 0 3.5 
" id="m16a9ece9eb" style="stroke:#000000;stroke-width:0.8;"/>
      </defs>
      <g>
       <use style="stroke:#000000;stroke-width:0.8;" x="74.986364" xlink:href="#m16a9ece9eb" y="288.36"/>
      </g>
     </g>
     <g id="text_1">
      <!-- 1 -->
      <defs>
       <path d="M 9.5 56.796875 
C 10.90625 57 12.40625 57 13.796875 57.203125 
C 16.5 57.703125 18.90625 58.609375 21.203125 60.015625 
L 21.203125 6.5 
C 21.203125 2.703125 17.796875 2.109375 14.296875 2.109375 
C 12.796875 2.109375 11.296875 2.109375 10 2.109375 
L 10 0 
L 36.703125 0 
L 36.703125 2.109375 
C 35.296875 2.109375 33.796875 2.109375 32.296875 2.109375 
C 28.703125 2.109375 25.5 2.703125 25.5 6.5 
L 25.5 64.6875 
C 25.5 64.984375 25.40625 65.5 25.09375 65.5 
C 24.296875 65.5 22.59375 63.375 21.5 62.5625 
C 18.5 60.40625 14.59375 59.09375 11.09375 59.09375 
L 10.5 59.09375 
C 9.90625 59.09375 9.5 59 9.5 58.296875 
z
" id="Computer_Modern_Roman-49"/>
      </defs>
      <g transform="translate(71.572917 304.966067)scale(0.14 -0.14)">
       <use transform="scale(0.996264)" xlink:href="#Computer_Modern_Roman-49"/>
      </g>
     </g>
    </g>
    <g id="xtick_2">
     <g id="line2d_3">
      <path clip-path="url(#p96a6d8ad86)" d="M 184.895455 288.36 
L 184.895455 38.88 
" style="fill:none;stroke:#b0b0b0;stroke-linecap:square;stroke-width:0.8;"/>
     </g>
     <g id="line2d_4">
      <g>
       <use style="stroke:#000000;stroke-width:0.8;" x="184.895455" xlink:href="#m16a9ece9eb" y="288.36"/>
      </g>
     </g>
     <g id="text_2">
      <!-- 2 -->
      <defs>
       <path d="M 6.09375 49.3125 
C 6.90625 56.671875 12.09375 63.796875 20.09375 63.796875 
C 28.796875 63.796875 34.90625 56.34375 34.90625 47.90625 
L 34.90625 47.09375 
C 34.296875 36.828125 27.40625 28.671875 21 21.328125 
L 5.5 3.328125 
C 5 2.625 4.5 2.21875 4.5 1 
L 4.5 0 
L 38.09375 0 
L 40.203125 14.171875 
L 38.90625 14.171875 
C 38.09375 9.53125 38.5 4.609375 34.296875 4.609375 
C 31.703125 4.609375 29.09375 4.3125 26.5 4.3125 
C 25 4.3125 23.59375 4.3125 22.203125 4.3125 
L 8 4.3125 
C 13.09375 9.953125 18.203125 15.8125 23.703125 21.140625 
C 31.09375 28.5 40.203125 36.46875 40.203125 47.859375 
C 40.203125 59.34375 31.09375 66 21.09375 66 
C 12.59375 66 6.703125 59.046875 5.09375 51.609375 
L 4.796875 50.109375 
C 4.703125 49.1875 4.5 48.09375 4.5 47.09375 
C 4.5 45.171875 5.203125 43.25 8.09375 43.25 
C 9.796875 43.5625 10.90625 44.875 10.90625 46.375 
C 10.90625 47.984375 9.703125 49.609375 7.90625 49.609375 
C 7.296875 49.609375 6.703125 49.546875 6.09375 49.3125 
z
" id="Computer_Modern_Roman-50"/>
      </defs>
      <g transform="translate(181.482008 304.966067)scale(0.14 -0.14)">
       <use transform="scale(0.996264)" xlink:href="#Computer_Modern_Roman-50"/>
      </g>
     </g>
    </g>
    <g id="xtick_3">
     <g id="line2d_5">
      <path clip-path="url(#p96a6d8ad86)" d="M 294.804545 288.36 
L 294.804545 38.88 
" style="fill:none;stroke:#b0b0b0;stroke-linecap:square;stroke-width:0.8;"/>
     </g>
     <g id="line2d_6">
      <g>
       <use style="stroke:#000000;stroke-width:0.8;" x="294.804545" xlink:href="#m16a9ece9eb" y="288.36"/>
      </g>
     </g>
     <g id="text_3">
      <!-- 4 -->
      <defs>
       <path d="M 2.5 17 
L 27.59375 17 
L 27.59375 6.125 
C 27.59375 2.984375 25.90625 2.203125 18.90625 2.203125 
L 18.90625 0 
L 40.703125 0 
L 40.703125 2.203125 
L 37.90625 2.203125 
C 34.796875 2.203125 32 2.59375 32 6.125 
L 32 17 
L 42.203125 17 
L 42.203125 19.1875 
L 32 19.1875 
L 32 65.09375 
C 32 65.484375 31.90625 66 31.203125 66 
C 30.296875 66 29.59375 64.5 29.296875 63.90625 
L 3.40625 20.6875 
C 2.796875 19.6875 2.5 19.1875 2.5 18.09375 
z
M 4 19.1875 
L 27.703125 58.890625 
L 27.703125 19.1875 
z
" id="Computer_Modern_Roman-52"/>
      </defs>
      <g transform="translate(291.391099 304.966067)scale(0.14 -0.14)">
       <use transform="scale(0.996264)" xlink:href="#Computer_Modern_Roman-52"/>
      </g>
     </g>
    </g>
    <g id="xtick_4">
     <g id="line2d_7">
      <path clip-path="url(#p96a6d8ad86)" d="M 404.713636 288.36 
L 404.713636 38.88 
" style="fill:none;stroke:#b0b0b0;stroke-linecap:square;stroke-width:0.8;"/>
     </g>
     <g id="line2d_8">
      <g>
       <use style="stroke:#000000;stroke-width:0.8;" x="404.713636" xlink:href="#m16a9ece9eb" y="288.36"/>
      </g>
     </g>
     <g id="text_4">
      <!-- 8 -->
      <defs>
       <path d="M 19.09375 34.6875 
C 11.59375 30.59375 4.90625 26.6875 3.703125 16.796875 
L 3.703125 15.796875 
C 3.703125 5.171875 13.59375 -0.5 22.59375 -0.5 
L 23.203125 -0.5 
C 32.296875 -0.5 41 6.75 41 16.5 
L 41 17.5 
C 40.5 24.3125 36.703125 28.109375 30.703125 32.40625 
C 29 33.609375 27.296875 35.109375 25.40625 36.109375 
C 31.796875 39.703125 38.5 44.40625 38.5 52.3125 
C 38.5 59.703125 31.296875 66.109375 22.5 66.109375 
C 15.09375 66.109375 6.203125 61 6.203125 51.109375 
C 6.203125 44.703125 10.09375 41.09375 15.40625 37.296875 
C 16.59375 36.390625 17.796875 35.390625 19.09375 34.6875 
z
M 6.5 14.703125 
C 6.5 15.109375 6.40625 15.609375 6.40625 16 
C 6.40625 23.203125 12.40625 30.109375 18.59375 33 
C 19 33.203125 19.59375 33.609375 20.09375 33.609375 
C 21.296875 33.609375 23.90625 31.109375 25.59375 29.90625 
C 30.703125 26.3125 38.203125 22.40625 38.203125 15.609375 
C 38.203125 7 30.59375 1.5 22.5 1.5 
C 14.796875 1.5 7.703125 6.109375 6.5 14.703125 
z
M 8.796875 52.3125 
C 8.796875 52.609375 8.703125 52.90625 8.703125 53.203125 
C 8.703125 60.203125 16.40625 64 22.09375 64 
C 28.703125 64 34.59375 60.40625 35.90625 53.109375 
C 35.90625 52.703125 36 52.3125 36 51.90625 
C 36 45.609375 30.59375 40.703125 25.796875 37.8125 
C 25.40625 37.5 24.90625 37.109375 24.40625 37.109375 
C 23.5 37.109375 21.203125 39.3125 19.796875 40.203125 
C 15.40625 43.609375 9.59375 46.203125 8.796875 52.3125 
z
" id="Computer_Modern_Roman-56"/>
      </defs>
      <g transform="translate(401.30019 304.966067)scale(0.14 -0.14)">
       <use transform="scale(0.996264)" xlink:href="#Computer_Modern_Roman-56"/>
      </g>
     </g>
    </g>
    <g id="text_5">
     <!-- Количество потокв -->
     <defs>
      <path d="M 7.296875 68.203125 
L 7.296875 66 
L 9 66 
C 11.59375 66 13.703125 65.703125 13.703125 61.796875 
L 13.703125 6.40625 
C 13.703125 2.5 12 2.203125 7.296875 2.203125 
L 7.296875 0 
L 25 0 
L 25 2.203125 
L 24 2.203125 
C 20.90625 2.203125 18.5 2.40625 18.5 6 
C 18.5 6.796875 18.59375 7.59375 18.59375 8.1875 
L 18.59375 23.375 
C 18.59375 25.15625 20.703125 26.453125 21.90625 27.65625 
C 24.296875 30.15625 26.796875 32.65625 29.09375 35.140625 
C 30.09375 36.140625 31.296875 37.140625 32.09375 38.34375 
L 32.296875 38.34375 
C 32.796875 37.140625 33.59375 36.140625 34.296875 35.046875 
L 37.90625 29.453125 
C 41.703125 23.46875 45.59375 17.375 49.40625 11.390625 
L 51.296875 8.390625 
C 52.09375 7.1875 53.09375 5.703125 53.09375 4.40625 
C 53.09375 3.109375 52 2.203125 50.203125 2.203125 
L 50.203125 0 
L 65.796875 0 
L 65.796875 2.203125 
C 61.09375 2.203125 59.203125 4.90625 56.09375 9.703125 
C 54.09375 12.90625 52 16.109375 50 19.3125 
L 37 39.703125 
C 36.59375 40.3125 35.90625 41 35.796875 41.703125 
C 35.796875 42 36 42.3125 36.203125 42.5 
L 37.40625 43.703125 
C 41.90625 48.203125 46.296875 52.90625 50.796875 57.5 
C 54.5 61.40625 58.796875 66 64.59375 66 
L 64.59375 68.203125 
L 51.59375 68.203125 
L 51.59375 66 
C 52.796875 65.390625 53.296875 65.09375 53.296875 63.90625 
C 53.296875 60.8125 49.09375 57.71875 46.90625 55.328125 
C 37.59375 45.53125 28.203125 35.84375 18.59375 26.265625 
L 18.59375 62.5 
C 18.59375 65.796875 21.203125 66 24.09375 66 
L 25 66 
L 25 68.203125 
z
" id="Computer_Modern_Roman-202"/>
      <path d="M 21.09375 44 
C 9.59375 42.59375 3.703125 31.90625 3.703125 21.5 
C 3.703125 10.90625 10.703125 -0.5 22.5 -0.5 
L 23.5 -0.5 
C 35 0.90625 41 11.5 41 21.59375 
C 41 31.796875 34.09375 44.09375 22.5 44.09375 
C 22 44.09375 21.59375 44 21.09375 44 
z
M 8.796875 19.90625 
L 8.796875 21.5 
C 8.796875 29 9.703125 37.421875 17.40625 41.609375 
C 18.703125 42.21875 20.203125 42.71875 21.703125 42.71875 
L 22.40625 42.71875 
C 32.09375 42.71875 35.90625 31.4375 35.90625 23.359375 
C 35.90625 15.46875 35.09375 4.203125 25.09375 1.203125 
C 24.203125 1 23.296875 0.796875 22.40625 0.796875 
C 15 0.796875 10.203125 8.203125 9.296875 15.296875 
C 9 16.796875 9 18.40625 8.796875 19.90625 
z
" id="Computer_Modern_Roman-238"/>
      <path d="M 12.703125 42.953125 
L 12.703125 41.859375 
L 14.203125 41.859375 
C 16.59375 41.859375 18.796875 41.265625 18.796875 38.1875 
L 18.796875 37.40625 
C 18.796875 35.328125 18.703125 33.25 18.5 31.171875 
C 17.796875 22.859375 17.296875 14.15625 13.90625 6.4375 
C 12.703125 3.765625 10.90625 0.796875 8.40625 0.796875 
C 6.59375 0.796875 5 1.59375 3.796875 2.796875 
L 4.40625 2.796875 
C 5.90625 2.796875 7 3.796875 7 5.296875 
C 7 6.890625 5.90625 8 4.40625 8 
C 2.59375 8 1.703125 6.703125 1.703125 5 
C 1.796875 1.5 5.09375 -0.5 8.40625 -0.5 
C 12.703125 -0.5 15 5.234375 16.203125 8.796875 
C 18.796875 16.53125 19.90625 25.53125 19.90625 33.640625 
L 19.90625 35.03125 
C 19.90625 38.890625 20.09375 41.859375 23.09375 41.859375 
L 32.796875 41.859375 
C 34.59375 41.859375 35 40.578125 35.203125 39.1875 
L 35.203125 5.703125 
C 35.203125 1.609375 33.203125 1.203125 30.40625 1.203125 
L 29.296875 1.203125 
L 29.296875 0 
L 45.203125 0 
L 45.203125 1.203125 
L 43.796875 1.203125 
C 41.296875 1.203125 39.296875 1.703125 39.296875 5.203125 
L 39.296875 37.859375 
C 39.296875 41.359375 41.40625 41.859375 43.796875 41.859375 
L 45.203125 41.859375 
L 45.203125 42.953125 
z
" id="Computer_Modern_Roman-235"/>
      <path d="M 4.5 42.953125 
L 4.5 41.859375 
L 5.90625 41.859375 
C 8.296875 41.859375 10.40625 41.359375 10.40625 37.859375 
L 10.40625 5.203125 
C 10.40625 1.703125 8.40625 1.203125 5.90625 1.203125 
L 4.5 1.203125 
L 4.5 0 
L 20.40625 0 
L 20.40625 1.203125 
L 19 1.203125 
C 16.796875 1.203125 15 1.5 14.5 4.203125 
L 14.5 4.90625 
C 14.5 6.203125 15.703125 7.3125 16.40625 8.3125 
C 20.796875 14.890625 25.5 21.390625 30.09375 27.875 
L 33.296875 32.46875 
C 33.90625 33.375 34.59375 34.171875 35.09375 35.171875 
L 35.203125 5.203125 
C 35.203125 1.609375 33 1.203125 30.703125 1.203125 
L 29.296875 1.203125 
L 29.296875 0 
L 45.203125 0 
L 45.203125 1.203125 
L 43.796875 1.203125 
C 41.296875 1.203125 39.296875 1.703125 39.296875 5.203125 
L 39.296875 37.859375 
C 39.296875 41.359375 41.40625 41.859375 43.796875 41.859375 
L 45.203125 41.859375 
L 45.203125 42.953125 
L 29.296875 42.953125 
L 29.296875 41.859375 
L 30.703125 41.859375 
C 32.90625 41.859375 34.703125 41.453125 35.203125 38.765625 
L 35.203125 38.0625 
C 35.203125 36.765625 34 35.65625 33.296875 34.65625 
C 28.90625 28.078125 24.203125 21.578125 19.59375 15.09375 
L 16.40625 10.484375 
C 15.796875 9.59375 15.09375 8.796875 14.59375 7.796875 
L 14.5 37.859375 
C 14.5 41.15625 16.40625 41.859375 19 41.859375 
L 20.40625 41.859375 
L 20.40625 42.953125 
L 15.59375 42.953125 
z
" id="Computer_Modern_Roman-232"/>
      <path d="M 4.5 42.953125 
L 4.5 41.859375 
L 5.90625 41.859375 
C 8.90625 41.859375 10.40625 40.765625 10.40625 37.796875 
L 10.40625 28.25 
C 10.40625 22.5 15.09375 20.21875 19.703125 19.8125 
L 23.203125 19.8125 
C 27 19.8125 31.703125 19.8125 35.203125 21.5 
L 35.203125 7.84375 
C 35.203125 7.140625 35.296875 6.21875 35.296875 5.421875 
C 35.296875 1.8125 33.296875 1.203125 30.5 1.203125 
L 29.296875 1.203125 
L 29.296875 0 
L 45.203125 0 
L 45.203125 1.203125 
L 43.796875 1.203125 
C 41.296875 1.203125 39.296875 1.703125 39.296875 5.203125 
L 39.296875 37.859375 
C 39.296875 41.359375 41.40625 41.859375 43.796875 41.859375 
L 45.203125 41.859375 
L 45.203125 42.953125 
L 29.296875 42.953125 
L 29.296875 41.859375 
L 30.5 41.859375 
C 33.203125 41.859375 35.203125 41.359375 35.203125 37.875 
L 35.203125 23.5 
C 35.203125 21 27 21 23 21 
L 20.59375 21 
C 16.09375 21 14.5 25.171875 14.5 28.859375 
L 14.5 37.484375 
C 14.5 41.453125 16.40625 41.859375 19.203125 41.859375 
L 20.40625 41.859375 
L 20.40625 42.953125 
L 15.59375 42.953125 
z
" id="Computer_Modern_Roman-247"/>
      <path d="M 8.796875 23.8125 
L 35.09375 23.8125 
C 35.296875 23.8125 35.703125 23.703125 36.09375 23.703125 
C 36.796875 23.703125 37.09375 24.109375 37.09375 24.703125 
C 37.09375 33.65625 32.796875 44 21.59375 44 
C 9.59375 44 3.703125 31.734375 3.703125 21.953125 
C 3.703125 12.15625 9.203125 1.09375 21.09375 -0.40625 
C 21.5 -0.40625 21.90625 -0.5 22.296875 -0.5 
C 29.203125 -0.5 34.5 4.265625 36.796875 10.71875 
C 36.90625 11.015625 37 11.40625 37 11.703125 
C 37 12 36.90625 12.296875 36.5 12.296875 
C 35.5 12.296875 35.40625 10.71875 35.09375 9.8125 
C 33.09375 5.0625 28.796875 0.890625 23.203125 0.890625 
C 19 0.890625 15 3.28125 12.703125 6.640625 
C 9 11.59375 8.796875 17.953125 8.796875 23.8125 
z
M 8.90625 25 
C 9.09375 32.859375 13 42.8125 21.40625 42.8125 
C 28.40625 42.8125 31.40625 35.375 32.203125 29.53125 
C 32.296875 28.015625 32.296875 26.515625 32.5 25 
z
" id="Computer_Modern_Roman-229"/>
      <path d="M 34.703125 32.6875 
C 34.203125 32.796875 33.703125 32.890625 33.203125 32.890625 
C 31.59375 32.890625 30.40625 31.5 30.40625 30 
C 30.40625 28.5 31.59375 27 33.296875 27 
C 34.703125 27 36.09375 28 36.296875 29.5 
L 36.296875 30.09375 
C 36.296875 36.96875 30.703125 44.046875 22.5 44.046875 
C 11.203125 44.046875 4.203125 32.328125 4.203125 21.71875 
C 4.203125 11.21875 10.59375 0.5 21.296875 -0.5 
L 22.296875 -0.5 
C 29.40625 -0.5 35 4.015625 37 10.75 
C 37.09375 11.140625 37.203125 11.546875 37.203125 11.953125 
C 37.203125 12.25 37 12.34375 36.796875 12.34375 
C 35.703125 12.34375 35.5 10.453125 35.09375 9.4375 
C 33.296875 4.3125 28.5 0.796875 23.40625 0.796875 
C 13.90625 0.796875 9.296875 12.015625 9.296875 20.234375 
C 9.296875 28.640625 11.09375 42.765625 22.703125 42.765625 
C 28.296875 42.765625 33.40625 38.171875 34.703125 32.6875 
z
" id="Computer_Modern_Roman-241"/>
      <path d="M 3.09375 43 
L 2.203125 27.90625 
L 3.5 27.90625 
C 3.703125 31.703125 3.796875 36.703125 5.90625 39.3125 
C 8 41.5 11.296875 41.8125 14.09375 41.8125 
L 17.59375 41.8125 
C 20.09375 41.8125 20.296875 40 20.296875 38.203125 
L 20.296875 5.90625 
C 20.296875 1.609375 18.09375 1.203125 12 1.203125 
L 12 0 
L 32.703125 0 
L 32.703125 1.203125 
L 30.203125 1.203125 
C 27.09375 1.203125 24.40625 1.609375 24.40625 5.90625 
L 24.40625 38.203125 
C 24.40625 40 24.59375 41.8125 27.09375 41.8125 
L 30.59375 41.8125 
C 34.703125 41.8125 39.59375 41.109375 40.40625 35.3125 
C 40.90625 32.90625 41.09375 30.40625 41.203125 27.90625 
L 42.5 27.90625 
L 41.59375 43 
z
" id="Computer_Modern_Roman-242"/>
      <path d="M 4.59375 42.953125 
L 4.59375 41.859375 
L 5.59375 41.859375 
C 8.203125 41.859375 10.40625 41.5625 10.40625 37.859375 
L 10.40625 5.3125 
C 10.40625 1.5 8.203125 1.203125 5.59375 1.203125 
L 4.59375 1.203125 
L 4.59375 0 
L 28.40625 0 
C 34.5 0.5 41 4.265625 41.703125 11.078125 
L 41.703125 11.875 
C 41.703125 19.125 31.296875 23.09375 26.90625 23.09375 
C 28 23.609375 29.296875 23.703125 30.5 24.125 
C 34.5 25.34375 39.703125 28 39.703125 33.03125 
C 39.703125 41.21875 28.796875 42.953125 23 42.953125 
z
M 14.5 22.8125 
L 25.09375 22.8125 
C 31.296875 22.8125 36.703125 18.375 36.703125 12.046875 
L 36.703125 11.859375 
C 36.296875 5.0625 30.40625 1.203125 24.296875 1.203125 
L 17.5 1.203125 
C 15.296875 1.203125 14.5 1.796875 14.5 5.75 
z
M 14.5 24 
L 14.5 37.890625 
C 14.5 39.828125 14.796875 41.859375 17.5 41.859375 
L 22.5 41.859375 
C 25.5 41.859375 28.296875 41.859375 30.796875 40.125 
C 33.09375 38.484375 34.703125 35.828125 34.703125 33.078125 
C 34.703125 26.640625 27 24 22.5 24 
z
" id="Computer_Modern_Roman-226"/>
      <path d="M 4.5 42.953125 
L 4.5 41.859375 
L 5.90625 41.859375 
C 8.296875 41.859375 10.40625 41.359375 10.40625 37.859375 
L 10.40625 5.203125 
C 10.40625 1.703125 8.40625 1.203125 5.90625 1.203125 
L 4.5 1.203125 
L 4.5 0 
L 20.40625 0 
L 20.40625 1.203125 
L 19 1.203125 
C 16.59375 1.203125 14.5 1.703125 14.5 5.1875 
L 14.5 38.578125 
C 14.5 40.859375 15.5 41.859375 17.703125 41.859375 
C 18.40625 41.859375 19.09375 41.859375 19.59375 41.859375 
L 32.796875 41.859375 
C 34.59375 41.859375 35 40.5625 35.203125 39.15625 
L 35.203125 5.703125 
C 35.203125 1.609375 33.203125 1.203125 30.40625 1.203125 
L 29.296875 1.203125 
L 29.296875 0 
L 45.203125 0 
L 45.203125 1.203125 
L 43.796875 1.203125 
C 41.296875 1.203125 39.296875 1.703125 39.296875 5.203125 
L 39.296875 37.859375 
C 39.296875 41.359375 41.40625 41.859375 43.796875 41.859375 
L 45.203125 41.859375 
L 45.203125 42.953125 
z
" id="Computer_Modern_Roman-239"/>
      <path d="M 4.5 42.953125 
L 4.5 41.859375 
L 5.90625 41.859375 
C 8.296875 41.859375 10.40625 41.359375 10.40625 37.859375 
L 10.40625 5.203125 
C 10.40625 1.703125 8.40625 1.203125 5.90625 1.203125 
L 4.5 1.203125 
L 4.5 0 
L 20.296875 0 
L 20.296875 1.203125 
L 19 1.203125 
C 16.09375 1.203125 14.40625 1.90625 14.40625 5.3125 
L 14.40625 16.390625 
C 14.40625 17.484375 14.703125 17.890625 15.5 18.6875 
L 17.09375 20.078125 
C 18.90625 21.671875 20.703125 23.46875 22.703125 24.875 
C 23.703125 22.96875 25.203125 21.28125 26.40625 19.46875 
C 29.203125 15.484375 32.203125 11.59375 34.90625 7.484375 
L 35.5 6.609375 
C 36 5.703125 36.796875 4.40625 36.796875 3.3125 
C 36.796875 1.90625 35.40625 1.203125 34.203125 1.203125 
L 34.203125 0 
L 48.203125 0 
L 48.203125 1.203125 
C 44 1.203125 41.40625 4.8125 39.296875 8.09375 
C 35.203125 13.796875 31.296875 19.390625 27.203125 25.078125 
C 26.703125 25.875 26.203125 26.671875 25.5 27.375 
L 25.5 27.46875 
C 30.203125 30.984375 34 35.625 39 38.84375 
C 41.09375 40.34375 43.5 41.859375 46.203125 41.859375 
L 46.203125 42.953125 
L 34 42.953125 
L 34 41.859375 
C 35 41.359375 35.296875 41.0625 35.296875 40.265625 
C 35.296875 37.15625 32.296875 35.15625 32.296875 35.15625 
C 30 32.96875 27.59375 31.078125 25.203125 28.96875 
C 21.59375 25.78125 18.09375 22.59375 14.40625 19.484375 
L 14.40625 36.859375 
C 14.40625 40.453125 15.296875 41.859375 19.09375 41.859375 
L 20.296875 41.859375 
L 20.296875 42.953125 
z
" id="Computer_Modern_Roman-234"/>
     </defs>
     <g transform="translate(179.927493 321.283524)scale(0.14 -0.14)">
      <use transform="scale(0.996264)" xlink:href="#Computer_Modern_Roman-202"/>
      <use transform="translate(69.320979 0)scale(0.996264)" xlink:href="#Computer_Modern_Roman-238"/>
      <use transform="translate(113.899446 0)scale(0.996264)" xlink:href="#Computer_Modern_Roman-235"/>
      <use transform="translate(163.437874 0)scale(0.996264)" xlink:href="#Computer_Modern_Roman-232"/>
      <use transform="translate(212.976302 0)scale(0.996264)" xlink:href="#Computer_Modern_Roman-247"/>
      <use transform="translate(262.514731 0)scale(0.996264)" xlink:href="#Computer_Modern_Roman-229"/>
      <use transform="translate(302.133129 0)scale(0.996264)" xlink:href="#Computer_Modern_Roman-241"/>
      <use transform="translate(341.751528 0)scale(0.996264)" xlink:href="#Computer_Modern_Roman-242"/>
      <use transform="translate(386.329995 0)scale(0.996264)" xlink:href="#Computer_Modern_Roman-226"/>
      <use transform="translate(430.908462 0)scale(0.996264)" xlink:href="#Computer_Modern_Roman-238"/>
      <use transform="translate(505.185222 0)scale(0.996264)" xlink:href="#Computer_Modern_Roman-239"/>
      <use transform="translate(554.72365 0)scale(0.996264)" xlink:href="#Computer_Modern_Roman-238"/>
      <use transform="translate(599.302117 0)scale(0.996264)" xlink:href="#Computer_Modern_Roman-242"/>
      <use transform="translate(643.880583 0)scale(0.996264)" xlink:href="#Computer_Modern_Roman-238"/>
      <use transform="translate(688.45905 0)scale(0.996264)" xlink:href="#Computer_Modern_Roman-234"/>
      <use transform="translate(737.997478 0)scale(0.996264)" xlink:href="#Computer_Modern_Roman-226"/>
     </g>
    </g>
   </g>
   <g id="matplotlib.axis_2">
    <g id="ytick_1">
     <g id="line2d_9">
      <path clip-path="url(#p96a6d8ad86)" d="M 58.5 288.36 
L 421.2 288.36 
" style="fill:none;stroke:#b0b0b0;stroke-linecap:square;stroke-width:0.8;"/>
     </g>
     <g id="line2d_10">
      <defs>
       <path d="M 0 0 
L -3.5 0 
" id="md573c16a11" style="stroke:#000000;stroke-width:0.8;"/>
      </defs>
      <g>
       <use style="stroke:#000000;stroke-width:0.8;" x="58.5" xlink:href="#md573c16a11" y="288.36"/>
      </g>
     </g>
     <g id="text_6">
      <!-- $0$ -->
      <defs>
       <path d="M 42 31.640625 
C 42 37.75 41.90625 48.125 37.703125 56.109375 
C 34 63.109375 28.09375 65.59375 22.90625 65.59375 
C 18.09375 65.59375 12 63.40625 8.203125 56.203125 
C 4.203125 48.71875 3.796875 39.4375 3.796875 31.640625 
C 3.796875 25.953125 3.90625 17.28125 7 9.671875 
C 11.296875 -0.609375 19 -2 22.90625 -2 
C 27.5 -2 34.5 -0.109375 38.59375 9.375 
C 41.59375 16.28125 42 24.359375 42 31.640625 
z
M 22.90625 -0.40625 
C 16.5 -0.40625 12.703125 5.078125 11.296875 12.6875 
C 10.203125 18.5625 10.203125 27.15625 10.203125 32.75 
C 10.203125 40.4375 10.203125 46.828125 11.5 52.921875 
C 13.40625 61.390625 19 64 22.90625 64 
C 27 64 32.296875 61.296875 34.203125 53.125 
C 35.5 47.4375 35.59375 40.734375 35.59375 32.75 
C 35.59375 26.25 35.59375 18.265625 34.40625 12.375 
C 32.296875 1.484375 26.40625 -0.40625 22.90625 -0.40625 
z
" id="CMR17-48"/>
      </defs>
      <g transform="translate(44.671511 293.163034)scale(0.14 -0.14)">
       <use transform="scale(0.996264)" xlink:href="#CMR17-48"/>
      </g>
     </g>
    </g>
    <g id="ytick_2">
     <g id="line2d_11">
      <path clip-path="url(#p96a6d8ad86)" d="M 58.5 252.72 
L 421.2 252.72 
" style="fill:none;stroke:#b0b0b0;stroke-linecap:square;stroke-width:0.8;"/>
     </g>
     <g id="line2d_12">
      <g>
       <use style="stroke:#000000;stroke-width:0.8;" x="58.5" xlink:href="#md573c16a11" y="252.72"/>
      </g>
     </g>
     <g id="text_7">
      <!-- $1000$ -->
      <defs>
       <path d="M 26.59375 63.40625 
C 26.59375 65.5 26.5 65.5 25.09375 65.5 
C 21.203125 61.1875 15.296875 59.796875 9.703125 59.796875 
C 9.40625 59.796875 8.90625 59.796875 8.796875 59.5 
C 8.703125 59.296875 8.703125 59.09375 8.703125 57 
C 11.796875 57 17 57.59375 21 59.984375 
L 21 7.203125 
C 21 3.6875 20.796875 2.5 12.203125 2.5 
L 9.203125 2.5 
L 9.203125 0 
C 14 0 19 0 23.796875 0 
C 28.59375 0 33.59375 0 38.40625 0 
L 38.40625 2.5 
L 35.40625 2.5 
C 26.796875 2.5 26.59375 3.59375 26.59375 7.15625 
z
" id="CMR17-49"/>
      </defs>
      <g transform="translate(24.186045 257.523034)scale(0.14 -0.14)">
       <use transform="scale(0.996264)" xlink:href="#CMR17-49"/>
       <use transform="translate(45.690477 0)scale(0.996264)" xlink:href="#CMR17-48"/>
       <use transform="translate(91.380954 0)scale(0.996264)" xlink:href="#CMR17-48"/>
       <use transform="translate(137.071431 0)scale(0.996264)" xlink:href="#CMR17-48"/>
      </g>
     </g>
    </g>
    <g id="ytick_3">
     <g id="line2d_13">
      <path clip-path="url(#p96a6d8ad86)" d="M 58.5 217.08 
L 421.2 217.08 
" style="fill:none;stroke:#b0b0b0;stroke-linecap:square;stroke-width:0.8;"/>
     </g>
     <g id="line2d_14">
      <g>
       <use style="stroke:#000000;stroke-width:0.8;" x="58.5" xlink:href="#md573c16a11" y="217.08"/>
      </g>
     </g>
     <g id="text_8">
      <!-- $2000$ -->
      <defs>
       <path d="M 41.703125 15.453125 
L 39.90625 15.453125 
C 38.90625 8.375 38.09375 7.171875 37.703125 6.5625 
C 37.203125 5.765625 30 5.765625 28.59375 5.765625 
L 9.40625 5.765625 
C 13 9.671875 20 16.75 28.5 24.953125 
C 34.59375 30.734375 41.703125 37.53125 41.703125 47.421875 
C 41.703125 59.21875 32.296875 66 21.796875 66 
C 10.796875 66 4.09375 56.3125 4.09375 47.34375 
C 4.09375 43.4375 7 42.9375 8.203125 42.9375 
C 9.203125 42.9375 12.203125 43.546875 12.203125 47.03125 
C 12.203125 50.109375 9.59375 51 8.203125 51 
C 7.59375 51 7 50.90625 6.59375 50.703125 
C 8.5 59.21875 14.296875 63.40625 20.40625 63.40625 
C 29.09375 63.40625 34.796875 56.515625 34.796875 47.421875 
C 34.796875 38.734375 29.703125 31.25 24 24.75 
L 4.09375 2.28125 
L 4.09375 0 
L 39.296875 0 
z
" id="CMR17-50"/>
      </defs>
      <g transform="translate(24.186045 221.883034)scale(0.14 -0.14)">
       <use transform="scale(0.996264)" xlink:href="#CMR17-50"/>
       <use transform="translate(45.690477 0)scale(0.996264)" xlink:href="#CMR17-48"/>
       <use transform="translate(91.380954 0)scale(0.996264)" xlink:href="#CMR17-48"/>
       <use transform="translate(137.071431 0)scale(0.996264)" xlink:href="#CMR17-48"/>
      </g>
     </g>
    </g>
    <g id="ytick_4">
     <g id="line2d_15">
      <path clip-path="url(#p96a6d8ad86)" d="M 58.5 181.44 
L 421.2 181.44 
" style="fill:none;stroke:#b0b0b0;stroke-linecap:square;stroke-width:0.8;"/>
     </g>
     <g id="line2d_16">
      <g>
       <use style="stroke:#000000;stroke-width:0.8;" x="58.5" xlink:href="#md573c16a11" y="181.44"/>
      </g>
     </g>
     <g id="text_9">
      <!-- $3000$ -->
      <defs>
       <path d="M 22.09375 33.703125 
C 31 33.703125 34.90625 25.96875 34.90625 17.03125 
C 34.90625 5 28.5 0.390625 22.703125 0.390625 
C 17.40625 0.390625 8.796875 3.03125 6.09375 10.828125 
C 6.59375 10.625 7.09375 10.625 7.59375 10.625 
C 10 10.625 11.796875 12.21875 11.796875 14.8125 
C 11.796875 17.703125 9.59375 19 7.59375 19 
C 5.90625 19 3.296875 18.203125 3.296875 14.46875 
C 3.296875 5.234375 12.296875 -2 22.90625 -2 
C 34 -2 42.5 6.71875 42.5 16.953125 
C 42.5 26.671875 34.5 33.703125 25 34.796875 
C 32.59375 36.375 39.90625 43.0625 39.90625 52.015625 
C 39.90625 59.6875 32 65.296875 23 65.296875 
C 13.90625 65.296875 5.90625 59.828125 5.90625 52.015625 
C 5.90625 48.59375 8.5 48 9.796875 48 
C 11.90625 48 13.703125 49.296875 13.703125 51.890625 
C 13.703125 54.46875 11.90625 55.765625 9.796875 55.765625 
C 9.40625 55.765625 8.90625 55.765625 8.5 55.578125 
C 11.40625 61.859375 19.296875 63 22.796875 63 
C 26.296875 63 32.90625 61.328125 32.90625 51.875 
C 32.90625 49.109375 32.5 44.1875 29.09375 39.84375 
C 26.09375 36 22.703125 36 19.40625 35.6875 
C 18.90625 35.6875 16.59375 35.453125 16.203125 35.453125 
C 15.5 35.359375 15.09375 35.265625 15.09375 34.5 
C 15.09375 33.796875 15.203125 33.703125 17.203125 33.703125 
z
" id="CMR17-51"/>
      </defs>
      <g transform="translate(24.186045 186.243034)scale(0.14 -0.14)">
       <use transform="scale(0.996264)" xlink:href="#CMR17-51"/>
       <use transform="translate(45.690477 0)scale(0.996264)" xlink:href="#CMR17-48"/>
       <use transform="translate(91.380954 0)scale(0.996264)" xlink:href="#CMR17-48"/>
       <use transform="translate(137.071431 0)scale(0.996264)" xlink:href="#CMR17-48"/>
      </g>
     </g>
    </g>
    <g id="ytick_5">
     <g id="line2d_17">
      <path clip-path="url(#p96a6d8ad86)" d="M 58.5 145.8 
L 421.2 145.8 
" style="fill:none;stroke:#b0b0b0;stroke-linecap:square;stroke-width:0.8;"/>
     </g>
     <g id="line2d_18">
      <g>
       <use style="stroke:#000000;stroke-width:0.8;" x="58.5" xlink:href="#md573c16a11" y="145.8"/>
      </g>
     </g>
     <g id="text_10">
      <!-- $4000$ -->
      <defs>
       <path d="M 33.59375 64.40625 
C 33.59375 66.5 33.5 66.5 31.703125 66.5 
L 2 19.59375 
L 2 17 
L 27.796875 17 
L 27.796875 7.140625 
C 27.796875 3.5 27.59375 2.5 20.59375 2.5 
L 18.703125 2.5 
L 18.703125 0 
C 21.90625 0 27.296875 0 30.703125 0 
C 34.09375 0 39.5 0 42.703125 0 
L 42.703125 2.5 
L 40.796875 2.5 
C 33.796875 2.5 33.59375 3.5 33.59375 7.140625 
L 33.59375 17 
L 43.796875 17 
L 43.796875 19.59375 
L 33.59375 19.59375 
z
M 28.09375 57.859375 
L 28.09375 19.59375 
L 4 19.59375 
z
" id="CMR17-52"/>
      </defs>
      <g transform="translate(24.186045 150.603034)scale(0.14 -0.14)">
       <use transform="scale(0.996264)" xlink:href="#CMR17-52"/>
       <use transform="translate(45.690477 0)scale(0.996264)" xlink:href="#CMR17-48"/>
       <use transform="translate(91.380954 0)scale(0.996264)" xlink:href="#CMR17-48"/>
       <use transform="translate(137.071431 0)scale(0.996264)" xlink:href="#CMR17-48"/>
      </g>
     </g>
    </g>
    <g id="ytick_6">
     <g id="line2d_19">
      <path clip-path="url(#p96a6d8ad86)" d="M 58.5 110.16 
L 421.2 110.16 
" style="fill:none;stroke:#b0b0b0;stroke-linecap:square;stroke-width:0.8;"/>
     </g>
     <g id="line2d_20">
      <g>
       <use style="stroke:#000000;stroke-width:0.8;" x="58.5" xlink:href="#md573c16a11" y="110.16"/>
      </g>
     </g>
     <g id="text_11">
      <!-- $5000$ -->
      <defs>
       <path d="M 11.40625 57.6875 
C 12.40625 57.28125 16.5 56 20.703125 56 
C 30 56 35.09375 61.109375 38 64.0625 
C 38 64.953125 38 65.5 37.40625 65.5 
C 37.296875 65.5 37.09375 65.5 36.296875 65.046875 
C 32.796875 63.40625 28.703125 62.078125 23.703125 62.078125 
C 20.703125 62.078125 16.203125 62.484375 11.296875 64.671875 
C 10.203125 65.171875 10 65.171875 9.90625 65.171875 
C 9.40625 65.171875 9.296875 65.0625 9.296875 63.078125 
L 9.296875 34.421875 
C 9.296875 32.640625 9.296875 32.140625 10.296875 32.140625 
C 10.796875 32.140625 11 32.34375 11.5 33.03125 
C 14.703125 37.515625 19.09375 39.40625 24.09375 39.40625 
C 27.59375 39.40625 35.09375 37.21875 35.09375 20.140625 
C 35.09375 16.953125 35.09375 11.171875 32.09375 6.578125 
C 29.59375 2.484375 25.703125 0.390625 21.40625 0.390625 
C 14.796875 0.390625 8.09375 5 6.296875 12.71875 
C 6.703125 12.609375 7.5 12.421875 7.90625 12.421875 
C 9.203125 12.421875 11.703125 13.125 11.703125 16.21875 
C 11.703125 18.90625 9.796875 20 7.90625 20 
C 5.59375 20 4.09375 18.59375 4.09375 15.796875 
C 4.09375 7.09375 11 -2 21.59375 -2 
C 31.90625 -2 41.703125 6.875 41.703125 19.75 
C 41.703125 31.71875 33.90625 41 24.203125 41 
C 19.09375 41 14.796875 39.109375 11.40625 35.53125 
z
" id="CMR17-53"/>
      </defs>
      <g transform="translate(24.186045 114.963034)scale(0.14 -0.14)">
       <use transform="scale(0.996264)" xlink:href="#CMR17-53"/>
       <use transform="translate(45.690477 0)scale(0.996264)" xlink:href="#CMR17-48"/>
       <use transform="translate(91.380954 0)scale(0.996264)" xlink:href="#CMR17-48"/>
       <use transform="translate(137.071431 0)scale(0.996264)" xlink:href="#CMR17-48"/>
      </g>
     </g>
    </g>
    <g id="ytick_7">
     <g id="line2d_21">
      <path clip-path="url(#p96a6d8ad86)" d="M 58.5 74.52 
L 421.2 74.52 
" style="fill:none;stroke:#b0b0b0;stroke-linecap:square;stroke-width:0.8;"/>
     </g>
     <g id="line2d_22">
      <g>
       <use style="stroke:#000000;stroke-width:0.8;" x="58.5" xlink:href="#md573c16a11" y="74.52"/>
      </g>
     </g>
     <g id="text_12">
      <!-- $6000$ -->
      <defs>
       <path d="M 10.59375 34 
C 10.59375 57.65625 21.796875 63 28.296875 63 
C 30.40625 63 35.5 62.640625 37.5 59 
C 35.90625 59 32.90625 59 32.90625 55.515625 
C 32.90625 52.828125 35.09375 51.921875 36.5 51.921875 
C 37.40625 51.921875 40.09375 52.3125 40.09375 55.625 
C 40.09375 61.78125 35.09375 65.296875 28.203125 65.296875 
C 16.296875 65.296875 3.796875 52.96875 3.796875 31 
C 3.796875 3.953125 15.09375 -2 23.09375 -2 
C 32.796875 -2 42 6.671875 42 20.046875 
C 42 32.515625 33.90625 41.59375 23.703125 41.59375 
C 17.59375 41.59375 13.09375 37.609375 10.59375 30.625 
z
M 23.09375 0.390625 
C 10.796875 0.390625 10.796875 18.75 10.796875 22.4375 
C 10.796875 29.625 14.203125 40 23.5 40 
C 25.203125 40 30.09375 40 33.40625 33.125 
C 35.203125 29.21875 35.203125 25.140625 35.203125 20.140625 
C 35.203125 14.75 35.203125 10.78125 33.09375 6.78125 
C 30.90625 2.671875 27.703125 0.390625 23.09375 0.390625 
z
" id="CMR17-54"/>
      </defs>
      <g transform="translate(24.186045 79.323034)scale(0.14 -0.14)">
       <use transform="scale(0.996264)" xlink:href="#CMR17-54"/>
       <use transform="translate(45.690477 0)scale(0.996264)" xlink:href="#CMR17-48"/>
       <use transform="translate(91.380954 0)scale(0.996264)" xlink:href="#CMR17-48"/>
       <use transform="translate(137.071431 0)scale(0.996264)" xlink:href="#CMR17-48"/>
      </g>
     </g>
    </g>
    <g id="ytick_8">
     <g id="line2d_23">
      <path clip-path="url(#p96a6d8ad86)" d="M 58.5 38.88 
L 421.2 38.88 
" style="fill:none;stroke:#b0b0b0;stroke-linecap:square;stroke-width:0.8;"/>
     </g>
     <g id="line2d_24">
      <g>
       <use style="stroke:#000000;stroke-width:0.8;" x="58.5" xlink:href="#md573c16a11" y="38.88"/>
      </g>
     </g>
     <g id="text_13">
      <!-- $7000$ -->
      <defs>
       <path d="M 45.09375 61.578125 
L 45.09375 63.765625 
L 21.59375 63.765625 
C 9.90625 63.765625 9.703125 65.078125 9.296875 67 
L 7.5 67 
L 4.59375 48.34375 
L 6.40625 48.34375 
C 6.703125 50.234375 7.40625 55.3125 8.59375 57.203125 
C 9.203125 58 16.59375 58 18.296875 58 
L 40.296875 58 
L 29.203125 41.578125 
C 21.796875 30.53125 16.703125 15.609375 16.703125 2.578125 
C 16.703125 1.390625 16.703125 -2 20.296875 -2 
C 23.90625 -2 23.90625 1.390625 23.90625 2.671875 
L 23.90625 7.265625 
C 23.90625 23.5625 26.703125 34.3125 31.296875 41.1875 
z
" id="CMR17-55"/>
      </defs>
      <g transform="translate(24.186045 43.683034)scale(0.14 -0.14)">
       <use transform="scale(0.996264)" xlink:href="#CMR17-55"/>
       <use transform="translate(45.690477 0)scale(0.996264)" xlink:href="#CMR17-48"/>
       <use transform="translate(91.380954 0)scale(0.996264)" xlink:href="#CMR17-48"/>
       <use transform="translate(137.071431 0)scale(0.996264)" xlink:href="#CMR17-48"/>
      </g>
     </g>
    </g>
    <g id="text_14">
     <!-- Время (мс) -->
     <defs>
      <path d="M 7.40625 68 
L 7.40625 66.109375 
L 9.09375 66.109375 
C 11.703125 66.109375 13.796875 65.8125 13.796875 61.90625 
L 13.796875 6.5 
C 13.796875 2.59375 12.09375 2.296875 7.40625 2.296875 
L 7.40625 0 
L 32.296875 0 
C 34 0 35.59375 0 37.296875 0 
C 46.796875 0 58.40625 5.765625 58.40625 18.015625 
C 58.40625 27.671875 49.5 35.546875 39.90625 35.546875 
C 46.5 37.359375 55.90625 40.5 55.90625 51.515625 
C 55.90625 61.328125 46.703125 68 37.296875 68 
z
M 18.5 34.765625 
L 35.703125 34.765625 
C 38.59375 34.765625 41.5 34.765625 44.09375 33.265625 
C 49.5 30.390625 52.796875 24.515625 52.796875 18.53125 
C 52.796875 8.859375 44.59375 2.296875 34.796875 2.296875 
C 33.296875 2.296875 31.703125 2.296875 30.203125 2.296875 
L 21.203125 2.296875 
C 19.296875 2.296875 18.5 3.390625 18.5 5.1875 
z
M 18.5 36.046875 
L 18.5 62.8125 
C 18.5 64.609375 18.90625 66.109375 21.203125 66.109375 
L 29.796875 66.109375 
C 31.296875 66.109375 32.796875 66.109375 34.40625 66.109375 
C 41.59375 66.109375 50.5 61.90625 50.5 51.421875 
C 50.5 43.734375 44 37.546875 36.59375 36.34375 
C 35 36.046875 33.296875 36.046875 31.703125 36.046875 
z
" id="Computer_Modern_Roman-194"/>
      <path d="M 4.5 42.96875 
L 4.5 40.75 
L 5.796875 40.75 
C 9 40.75 10.40625 39.4375 10.40625 36.34375 
L 10.40625 -11.421875 
C 10.40625 -12.109375 10.5 -12.78125 10.5 -13.46875 
C 10.5 -16.59375 8 -16.796875 5.40625 -16.796875 
L 4.5 -16.796875 
L 4.5 -19 
L 20.40625 -19 
L 20.40625 -16.796875 
L 19 -16.796875 
C 16.703125 -16.796875 14.5 -16.5 14.5 -13.34375 
L 14.59375 7.359375 
C 16.703125 2.109375 22.796875 -0.5 27 -0.5 
C 38.09375 -0.5 45.5 10.796875 45.5 21.875 
C 45.5 31.75 39.59375 44.046875 28.09375 44.046875 
C 22.703125 44.046875 16.40625 40.625 14.5 35.90625 
L 14.40625 44.046875 
z
M 40.296875 19.96875 
C 39.796875 12.1875 35.59375 0.703125 26.703125 0.703125 
C 21.40625 0.703125 14.40625 5.453125 14.40625 11.703125 
C 14.40625 12.3125 14.5 12.921875 14.5 13.53125 
L 14.5 28.453125 
C 14.5 29.453125 14.40625 30.46875 14.40625 31.46875 
C 14.40625 37.109375 21.203125 42.765625 27.09375 42.765625 
C 36.703125 42.765625 40.40625 29.65625 40.40625 21.78125 
C 40.40625 21.171875 40.40625 20.578125 40.296875 19.96875 
z
" id="Computer_Modern_Roman-240"/>
      <path d="M 4.59375 42.953125 
L 4.59375 41.859375 
L 6 41.859375 
C 8.40625 41.859375 10.5 41.265625 10.5 37.859375 
L 10.5 15.296875 
C 10.5 13.59375 10.59375 11.796875 10.59375 9.984375 
C 10.59375 6.3125 10.296875 1.203125 4.59375 1.203125 
L 4.59375 0 
L 17.796875 0 
L 17.796875 1.203125 
C 12.296875 1.203125 11.90625 5.90625 11.90625 9.1875 
L 12 41.0625 
C 12.703125 37.65625 14.796875 33.875 16.09375 30.375 
L 24.203125 9.6875 
C 25.09375 7.1875 26.09375 4.8125 27.09375 2.3125 
C 27.296875 1.609375 27.59375 0.109375 28.5 0 
C 29.59375 0 31.703125 6.5 32.796875 9.59375 
C 36.59375 18.890625 40 28.375 43.796875 37.65625 
C 44.296875 38.859375 44.90625 40.15625 45.203125 41.453125 
L 45.296875 5.3125 
C 45.296875 1.703125 43.296875 1.203125 40.796875 1.203125 
L 39.40625 1.203125 
L 39.40625 0 
L 55.09375 0 
L 55.09375 1.203125 
L 53.703125 1.203125 
C 51.203125 1.203125 49.203125 1.703125 49.203125 5.203125 
L 49.203125 37.859375 
C 49.203125 41.359375 51.296875 41.859375 53.703125 41.859375 
L 55.09375 41.859375 
L 55.09375 42.953125 
L 45.90625 42.953125 
L 44.90625 42.765625 
L 44.296875 41.953125 
L 29.90625 5.09375 
L 16.296875 40.0625 
L 15 42.765625 
L 13.90625 42.953125 
z
" id="Computer_Modern_Roman-236"/>
      <path d="M 21 21.96875 
C 19.296875 19.34375 17.296875 16.84375 15.40625 14.34375 
C 11.796875 9.4375 7.40625 1.40625 1.5 1.40625 
L 1.5 0 
L 15.59375 0 
L 15.59375 1.203125 
L 14.703125 1.203125 
C 13.796875 1.203125 12.296875 1.40625 12.296875 2.484375 
C 12.296875 4.390625 16 8.65625 17.90625 11.140625 
L 23.296875 18.578125 
C 24.40625 19.984375 25 21.765625 26.796875 21.765625 
C 27.296875 21.765625 27.90625 21.765625 28.296875 21.765625 
L 34.09375 21.765625 
L 34.09375 4.1875 
C 33.703125 1.40625 31.59375 1.203125 29.40625 1.203125 
L 28.203125 1.203125 
L 28.203125 0 
L 44 0 
L 44 1.203125 
L 42.59375 1.203125 
C 40.09375 1.203125 38.09375 1.703125 38.09375 5.203125 
L 38.09375 37.859375 
C 38.09375 41.359375 40.203125 41.859375 42.59375 41.859375 
L 44 41.859375 
L 44 42.953125 
L 26.90625 42.953125 
C 20.703125 42.953125 12.203125 42.953125 8 37.625 
C 6.796875 36.125 6.203125 34.421875 6.203125 32.71875 
C 6.203125 26.578125 12.296875 23.46875 17.59375 22.46875 
C 18.703125 22.171875 19.90625 21.96875 21 21.96875 
z
M 34.09375 23.046875 
C 32 23.046875 29.796875 23.046875 27.59375 23.046875 
C 20.90625 23.046875 11.296875 23.046875 11.296875 32.609375 
C 11.296875 41.140625 19.59375 41.859375 25.59375 41.859375 
L 31.703125 41.859375 
C 33.796875 41.859375 34.09375 39.953125 34.09375 37.859375 
z
" id="Computer_Modern_Roman-255"/>
      <path d="M 28.703125 74.5 
C 27.296875 73.703125 25.703125 72 24.59375 70.609375 
C 13.203125 58.203125 9.296875 40.90625 9.296875 24.5 
C 9.296875 8.609375 13.296875 -8 23.796875 -20.203125 
C 25.296875 -21.796875 27.90625 -25 29.203125 -25 
C 29.40625 -25 29.59375 -24.890625 29.59375 -24.703125 
C 29.59375 -24.09375 26.703125 -21.296875 25.296875 -19.59375 
C 15.796875 -7.296875 12.703125 9 12.703125 24.296875 
C 12.703125 41.703125 16.09375 59.109375 28.203125 72.609375 
C 28.59375 73 29.40625 73.609375 29.59375 74.203125 
L 29.59375 74.296875 
C 29.59375 74.5 29.40625 74.609375 29.203125 74.609375 
C 29 74.609375 28.796875 74.5 28.703125 74.5 
z
" id="Computer_Modern_Roman-40"/>
      <path d="M 5.203125 74.703125 
C 5.203125 74.703125 5.09375 74.703125 5.09375 74.59375 
C 5.09375 74.09375 8.09375 71.296875 9.5 69.5 
C 18.90625 57.203125 22.09375 41.203125 22.09375 25.90625 
C 22.09375 8.703125 19 -9 6.59375 -22.703125 
C 6.203125 -23.09375 5.40625 -23.703125 5.203125 -24.296875 
L 5.203125 -24.40625 
C 5.203125 -24.59375 5.296875 -24.59375 5.5 -24.59375 
C 7 -24.59375 8.90625 -22.09375 10.296875 -20.59375 
C 21.796875 -7.703125 25.5 9 25.5 25.5 
C 25.5 42.796875 20.59375 62.5 6.90625 74.203125 
C 6.703125 74.40625 6.09375 74.90625 5.59375 74.90625 
C 5.40625 74.90625 5.296875 74.796875 5.203125 74.703125 
z
" id="Computer_Modern_Roman-41"/>
     </defs>
     <g transform="translate(16.699973 198.701427)rotate(-90)scale(0.14 -0.14)">
      <use transform="scale(0.996264)" xlink:href="#Computer_Modern_Roman-194"/>
      <use transform="translate(63.149724 0)scale(0.996264)" xlink:href="#Computer_Modern_Roman-240"/>
      <use transform="translate(112.688152 0)scale(0.996264)" xlink:href="#Computer_Modern_Roman-229"/>
      <use transform="translate(152.306551 0)scale(0.996264)" xlink:href="#Computer_Modern_Roman-236"/>
      <use transform="translate(211.765085 0)scale(0.996264)" xlink:href="#Computer_Modern_Roman-255"/>
      <use transform="translate(289.761812 0)scale(0.996264)" xlink:href="#Computer_Modern_Roman-40"/>
      <use transform="translate(324.420158 0)scale(0.996264)" xlink:href="#Computer_Modern_Roman-236"/>
      <use transform="translate(383.878692 0)scale(0.996264)" xlink:href="#Computer_Modern_Roman-241"/>
      <use transform="translate(423.497091 0)scale(0.996264)" xlink:href="#Computer_Modern_Roman-41"/>
     </g>
    </g>
   </g>
   <g id="line2d_25">
    <path clip-path="url(#p96a6d8ad86)" d="M 74.986364 61.606543 
L 184.895455 167.401844 
L 294.804545 200.696858 
L 404.713636 203.22334 
" style="fill:none;stroke:#1f77b4;stroke-linecap:square;stroke-width:1.5;"/>
    <defs>
     <path d="M 0 3 
C 0.795609 3 1.55874 2.683901 2.12132 2.12132 
C 2.683901 1.55874 3 0.795609 3 0 
C 3 -0.795609 2.683901 -1.55874 2.12132 -2.12132 
C 1.55874 -2.683901 0.795609 -3 0 -3 
C -0.795609 -3 -1.55874 -2.683901 -2.12132 -2.12132 
C -2.683901 -1.55874 -3 -0.795609 -3 0 
C -3 0.795609 -2.683901 1.55874 -2.12132 2.12132 
C -1.55874 2.683901 -0.795609 3 0 3 
z
" id="m416f2da650" style="stroke:#1f77b4;"/>
    </defs>
    <g clip-path="url(#p96a6d8ad86)">
     <use style="fill:#1f77b4;stroke:#1f77b4;" x="74.986364" xlink:href="#m416f2da650" y="61.606543"/>
     <use style="fill:#1f77b4;stroke:#1f77b4;" x="184.895455" xlink:href="#m416f2da650" y="167.401844"/>
     <use style="fill:#1f77b4;stroke:#1f77b4;" x="294.804545" xlink:href="#m416f2da650" y="200.696858"/>
     <use style="fill:#1f77b4;stroke:#1f77b4;" x="404.713636" xlink:href="#m416f2da650" y="203.22334"/>
    </g>
   </g>
   <g id="patch_3">
    <path d="M 58.5 288.36 
L 58.5 38.88 
" style="fill:none;stroke:#000000;stroke-linecap:square;stroke-linejoin:miter;stroke-width:0.8;"/>
   </g>
   <g id="patch_4">
    <path d="M 421.2 288.36 
L 421.2 38.88 
" style="fill:none;stroke:#000000;stroke-linecap:square;stroke-linejoin:miter;stroke-width:0.8;"/>
   </g>
   <g id="patch_5">
    <path d="M 58.5 288.36 
L 421.2 288.36 
" style="fill:none;stroke:#000000;stroke-linecap:square;stroke-linejoin:miter;stroke-width:0.8;"/>
   </g>
   <g id="patch_6">
    <path d="M 58.5 38.88 
L 421.2 38.88 
" style="fill:none;stroke:#000000;stroke-linecap:square;stroke-linejoin:miter;stroke-width:0.8;"/>
   </g>
  </g>
 </g>
 <defs>
  <clipPath id="p96a6d8ad86">
   <rect height="249.48" width="362.7" x="58.5" y="38.88"/>
  </clipPath>
 </defs>
</svg>
