<?xml version="1.0" encoding="utf-8" standalone="no"?>
<!DOCTYPE svg PUBLIC "-//W3C//DTD SVG 1.1//EN"
  "http://www.w3.org/Graphics/SVG/1.1/DTD/svg11.dtd">
<!-- Created with matplotlib (https://matplotlib.org/) -->
<svg height="324pt" version="1.1" viewBox="0 0 468 324" width="468pt" xmlns="http://www.w3.org/2000/svg" xmlns:xlink="http://www.w3.org/1999/xlink">
 <defs>
  <style type="text/css">
*{stroke-linecap:butt;stroke-linejoin:round;}
  </style>
 </defs>
 <g id="figure_1">
  <g id="patch_1">
   <path d="M 0 324 
L 468 324 
L 468 0 
L 0 0 
z
" style="fill:#ffffff;"/>
  </g>
  <g id="axes_1">
   <g id="patch_2">
    <path d="M 58.5 288.36 
L 421.2 288.36 
L 421.2 38.88 
L 58.5 38.88 
z
" style="fill:#ffffff;"/>
   </g>
   <g id="matplotlib.axis_1">
    <g id="xtick_1">
     <g id="line2d_1">
      <defs>
       <path d="M 0 0 
L 0 3.5 
" id="m4570f70076" style="stroke:#000000;stroke-width:0.8;"/>
      </defs>
      <g>
       <use style="stroke:#000000;stroke-width:0.8;" x="74.986364" xlink:href="#m4570f70076" y="288.36"/>
      </g>
     </g>
     <g id="text_1">
      <!-- $2^{7}$ -->
      <defs>
       <path d="M 41.703125 15.453125 
L 39.90625 15.453125 
C 38.90625 8.375 38.09375 7.171875 37.703125 6.5625 
C 37.203125 5.765625 30 5.765625 28.59375 5.765625 
L 9.40625 5.765625 
C 13 9.671875 20 16.75 28.5 24.953125 
C 34.59375 30.734375 41.703125 37.53125 41.703125 47.421875 
C 41.703125 59.21875 32.296875 66 21.796875 66 
C 10.796875 66 4.09375 56.3125 4.09375 47.34375 
C 4.09375 43.4375 7 42.9375 8.203125 42.9375 
C 9.203125 42.9375 12.203125 43.546875 12.203125 47.03125 
C 12.203125 50.109375 9.59375 51 8.203125 51 
C 7.59375 51 7 50.90625 6.59375 50.703125 
C 8.5 59.21875 14.296875 63.40625 20.40625 63.40625 
C 29.09375 63.40625 34.796875 56.515625 34.796875 47.421875 
C 34.796875 38.734375 29.703125 31.25 24 24.75 
L 4.09375 2.28125 
L 4.09375 0 
L 39.296875 0 
z
" id="CMR17-50"/>
       <path d="M 45.09375 61.578125 
L 45.09375 63.765625 
L 21.59375 63.765625 
C 9.90625 63.765625 9.703125 65.078125 9.296875 67 
L 7.5 67 
L 4.59375 48.34375 
L 6.40625 48.34375 
C 6.703125 50.234375 7.40625 55.3125 8.59375 57.203125 
C 9.203125 58 16.59375 58 18.296875 58 
L 40.296875 58 
L 29.203125 41.578125 
C 21.796875 30.53125 16.703125 15.609375 16.703125 2.578125 
C 16.703125 1.390625 16.703125 -2 20.296875 -2 
C 23.90625 -2 23.90625 1.390625 23.90625 2.671875 
L 23.90625 7.265625 
C 23.90625 23.5625 26.703125 34.3125 31.296875 41.1875 
z
" id="CMR17-55"/>
      </defs>
      <g transform="translate(69.063506 304.966067)scale(0.14 -0.14)">
       <use transform="scale(0.996264)" xlink:href="#CMR17-50"/>
       <use transform="translate(45.690477 36.153639)scale(0.697382)" xlink:href="#CMR17-55"/>
      </g>
     </g>
    </g>
    <g id="xtick_2">
     <g id="line2d_2">
      <g>
       <use style="stroke:#000000;stroke-width:0.8;" x="157.418182" xlink:href="#m4570f70076" y="288.36"/>
      </g>
     </g>
     <g id="text_2">
      <!-- $2^{8}$ -->
      <defs>
       <path d="M 27.203125 35.375 
C 33.5 38.546875 39.90625 43.328125 39.90625 50.984375 
C 39.90625 60.015625 31.09375 65.296875 23 65.296875 
C 13.90625 65.296875 5.90625 58.734375 5.90625 49.6875 
C 5.90625 47.203125 6.5 42.921875 10.40625 39.140625 
C 11.40625 38.15625 15.59375 35.171875 18.296875 33.28125 
C 13.796875 30.984375 3.296875 25.53125 3.296875 14.59375 
C 3.296875 4.359375 13.09375 -2 22.796875 -2 
C 33.5 -2 42.5 5.65625 42.5 15.78125 
C 42.5 24.84375 36.40625 29.015625 32.40625 31.703125 
z
M 14.09375 44.09375 
C 13.296875 44.59375 9.296875 47.671875 9.296875 52.359375 
C 9.296875 58.421875 15.59375 63 22.796875 63 
C 30.703125 63 36.5 57.4375 36.5 50.96875 
C 36.5 41.703125 26.09375 36.421875 25.59375 36.421875 
C 25.5 36.421875 25.40625 36.421875 24.59375 37.03125 
z
M 32.5 23.734375 
C 34 22.640625 38.796875 19.375 38.796875 13.296875 
C 38.796875 5.953125 31.40625 0.390625 23 0.390625 
C 13.90625 0.390625 7 6.84375 7 14.6875 
C 7 22.546875 13.09375 29.09375 20 32.1875 
z
" id="CMR17-56"/>
      </defs>
      <g transform="translate(151.495324 304.966067)scale(0.14 -0.14)">
       <use transform="scale(0.996264)" xlink:href="#CMR17-50"/>
       <use transform="translate(45.690477 36.153639)scale(0.697382)" xlink:href="#CMR17-56"/>
      </g>
     </g>
    </g>
    <g id="xtick_3">
     <g id="line2d_3">
      <g>
       <use style="stroke:#000000;stroke-width:0.8;" x="239.85" xlink:href="#m4570f70076" y="288.36"/>
      </g>
     </g>
     <g id="text_3">
      <!-- $2^{9}$ -->
      <defs>
       <path d="M 35.203125 29.125 
C 35.203125 7.25 26.09375 0.484375 18.59375 0.484375 
C 16.296875 0.484375 10.703125 0.484375 8.40625 4.59375 
C 11 4.1875 12.90625 5.578125 12.90625 8.09375 
C 12.90625 10.8125 10.703125 11.703125 9.296875 11.703125 
C 8.40625 11.703125 5.703125 11.296875 5.703125 7.90625 
C 5.703125 1.109375 11.59375 -2 18.796875 -2 
C 30.296875 -2 42 10.53125 42 32.390625 
C 42 59.640625 30.796875 65.296875 23.203125 65.296875 
C 13.296875 65.296875 3.796875 56.6875 3.796875 43.40625 
C 3.796875 31.109375 11.90625 22 22.09375 22 
C 30.5 22 34.203125 29.734375 35.203125 33 
z
M 22.296875 23.59375 
C 19.59375 23.59375 15.796875 24.09375 12.703125 30.03125 
C 10.59375 33.890625 10.59375 38.453125 10.59375 43.296875 
C 10.59375 49.15625 10.59375 53.203125 13.40625 57.5625 
C 14.796875 59.640625 17.40625 63 23.203125 63 
C 35 63 35 45.078125 35 41.125 
C 35 34.09375 31.796875 23.59375 22.296875 23.59375 
z
" id="CMR17-57"/>
      </defs>
      <g transform="translate(233.927142 304.966067)scale(0.14 -0.14)">
       <use transform="scale(0.996264)" xlink:href="#CMR17-50"/>
       <use transform="translate(45.690477 36.153639)scale(0.697382)" xlink:href="#CMR17-57"/>
      </g>
     </g>
    </g>
    <g id="xtick_4">
     <g id="line2d_4">
      <g>
       <use style="stroke:#000000;stroke-width:0.8;" x="322.281818" xlink:href="#m4570f70076" y="288.36"/>
      </g>
     </g>
     <g id="text_4">
      <!-- $2^{10}$ -->
      <defs>
       <path d="M 26.59375 63.40625 
C 26.59375 65.5 26.5 65.5 25.09375 65.5 
C 21.203125 61.1875 15.296875 59.796875 9.703125 59.796875 
C 9.40625 59.796875 8.90625 59.796875 8.796875 59.5 
C 8.703125 59.296875 8.703125 59.09375 8.703125 57 
C 11.796875 57 17 57.59375 21 59.984375 
L 21 7.203125 
C 21 3.6875 20.796875 2.5 12.203125 2.5 
L 9.203125 2.5 
L 9.203125 0 
C 14 0 19 0 23.796875 0 
C 28.59375 0 33.59375 0 38.40625 0 
L 38.40625 2.5 
L 35.40625 2.5 
C 26.796875 2.5 26.59375 3.59375 26.59375 7.15625 
z
" id="CMR17-49"/>
       <path d="M 42 31.640625 
C 42 37.75 41.90625 48.125 37.703125 56.109375 
C 34 63.109375 28.09375 65.59375 22.90625 65.59375 
C 18.09375 65.59375 12 63.40625 8.203125 56.203125 
C 4.203125 48.71875 3.796875 39.4375 3.796875 31.640625 
C 3.796875 25.953125 3.90625 17.28125 7 9.671875 
C 11.296875 -0.609375 19 -2 22.90625 -2 
C 27.5 -2 34.5 -0.109375 38.59375 9.375 
C 41.59375 16.28125 42 24.359375 42 31.640625 
z
M 22.90625 -0.40625 
C 16.5 -0.40625 12.703125 5.078125 11.296875 12.6875 
C 10.203125 18.5625 10.203125 27.15625 10.203125 32.75 
C 10.203125 40.4375 10.203125 46.828125 11.5 52.921875 
C 13.40625 61.390625 19 64 22.90625 64 
C 27 64 32.296875 61.296875 34.203125 53.125 
C 35.5 47.4375 35.59375 40.734375 35.59375 32.75 
C 35.59375 26.25 35.59375 18.265625 34.40625 12.375 
C 32.296875 1.484375 26.40625 -0.40625 22.90625 -0.40625 
z
" id="CMR17-48"/>
      </defs>
      <g transform="translate(313.850347 304.966067)scale(0.14 -0.14)">
       <use transform="scale(0.996264)" xlink:href="#CMR17-50"/>
       <use transform="translate(45.690477 36.153639)scale(0.697382)" xlink:href="#CMR17-49"/>
       <use transform="translate(77.673659 36.153639)scale(0.697382)" xlink:href="#CMR17-48"/>
      </g>
     </g>
    </g>
    <g id="xtick_5">
     <g id="line2d_5">
      <g>
       <use style="stroke:#000000;stroke-width:0.8;" x="404.713636" xlink:href="#m4570f70076" y="288.36"/>
      </g>
     </g>
     <g id="text_5">
      <!-- $2^{11}$ -->
      <g transform="translate(396.282165 304.966067)scale(0.14 -0.14)">
       <use transform="scale(0.996264)" xlink:href="#CMR17-50"/>
       <use transform="translate(45.690477 36.153639)scale(0.697382)" xlink:href="#CMR17-49"/>
       <use transform="translate(77.673659 36.153639)scale(0.697382)" xlink:href="#CMR17-49"/>
      </g>
     </g>
    </g>
    <g id="text_6">
     <!-- Размер матрицы -->
     <defs>
      <path d="M 7.296875 68.203125 
L 7.296875 66 
L 9 66 
C 11.59375 66 13.703125 65.703125 13.703125 61.796875 
L 13.703125 6.40625 
C 13.703125 2.5 12 2.203125 7.296875 2.203125 
L 7.296875 0 
L 25 0 
L 25 2.203125 
L 23.296875 2.203125 
C 20.796875 2.203125 18.59375 2.5 18.59375 6.171875 
L 18.59375 32.296875 
L 33.90625 32.296875 
C 43.40625 32.296875 55.90625 37.3125 55.90625 50.15625 
C 55.90625 60.484375 46.296875 67.390625 36.09375 68.203125 
z
M 18.5 34 
L 18.5 63.1875 
C 18.5 65 19.296875 66 21.203125 66 
L 32.90625 66 
C 41.40625 66 50.40625 62.28125 50.40625 49.75 
C 50.40625 39.625 42.90625 34 32.09375 34 
z
" id="Computer_Modern_Roman-208"/>
      <path d="M 9 32.5 
C 10.296875 37.703125 13.796875 42.8125 19.90625 42.8125 
C 25.296875 42.8125 29.203125 37.734375 30 32.828125 
C 30.203125 31.53125 30.203125 30.125 30.203125 28.84375 
L 30.203125 24.953125 
C 20.59375 24.953125 7.40625 22.75 5 10.71875 
C 4.90625 10.109375 4.90625 9.421875 4.90625 8.8125 
C 4.90625 2.09375 12.5 -0.5 17.703125 -0.5 
C 22.59375 -0.5 29 2.765625 30.296875 8.359375 
L 30.40625 8.359375 
C 30.40625 4.1875 33.203125 0 37.40625 0 
C 42.90625 0 44.203125 5.875 44.203125 10.15625 
L 44.203125 14.625 
L 42.90625 14.625 
L 42.90625 9.5625 
C 42.90625 6.375 42.203125 1.796875 38.59375 1.796875 
C 34.5 1.796875 34.296875 7.078125 34.296875 9.765625 
L 34.296875 28.28125 
C 34.296875 30.765625 34.203125 33.34375 33.203125 35.75 
C 31.09375 40.609375 25.59375 44 20.203125 44 
C 12.5 44 7.5 37.28125 7.5 29.96875 
C 7.5 28.09375 8.90625 27 10.5 27 
C 12.09375 27 13.40625 28.296875 13.40625 29.90625 
C 13.40625 31.40625 12.40625 32.796875 10.5 32.796875 
C 10 32.796875 9.5 32.703125 9 32.5 
z
M 30.203125 23.859375 
L 30.203125 14.03125 
C 30.203125 7.421875 26.09375 1.203125 19.203125 0.703125 
L 18.59375 0.703125 
C 14 0.703125 9.796875 4.3125 9.796875 9.21875 
C 9.796875 19.640625 21.296875 23.859375 30.203125 23.859375 
z
" id="Computer_Modern_Roman-224"/>
      <path d="M 21.703125 23.796875 
L 21.703125 23.90625 
C 25.5 24.296875 35.796875 27.203125 35.796875 33.5 
C 35.796875 42.09375 24.796875 44 17.796875 44 
C 13.703125 44 8.59375 42.78125 6.203125 38.921875 
C 5.09375 40.46875 3.703125 44 2.796875 44 
C 2.59375 43.875 2.5 43.546875 2.5 43.3125 
L 2.5 30.4375 
C 2.5 30.03125 2.5 29.625 2.90625 29.515625 
L 3.203125 29.515625 
C 4 29.515625 4 30.75 4.09375 31.359375 
C 6.09375 39.640625 11.59375 42.8125 18.09375 42.8125 
C 23.296875 42.8125 30.90625 40.765625 30.90625 33.515625 
C 30.90625 27.890625 24.59375 24 19.5 24 
L 13.40625 24 
C 12.90625 24 12.5 23.890625 12.40625 23.5 
L 12.40625 23.40625 
C 12.40625 22.90625 13 22.8125 13.5 22.8125 
L 17.203125 22.8125 
C 23.5 22.8125 31.203125 20.84375 31.796875 12.296875 
L 31.796875 11.609375 
C 31.796875 4.140625 24.5 0.796875 17.203125 0.796875 
C 10.203125 0.796875 4.40625 3.453125 3.296875 11.3125 
C 3.296875 11.59375 3.203125 12 2.90625 12 
L 2.59375 12 
C 2.09375 12 2 11.59375 2 11.21875 
C 2 3.234375 9.703125 -0.5 17.40625 -0.5 
C 24.40625 -0.5 36.796875 1.09375 36.796875 11.90625 
C 36.796875 19.90625 27.296875 23.203125 21.703125 23.796875 
z
" id="Computer_Modern_Roman-231"/>
      <path d="M 4.59375 42.953125 
L 4.59375 41.859375 
L 6 41.859375 
C 8.40625 41.859375 10.5 41.265625 10.5 37.859375 
L 10.5 15.296875 
C 10.5 13.59375 10.59375 11.796875 10.59375 9.984375 
C 10.59375 6.3125 10.296875 1.203125 4.59375 1.203125 
L 4.59375 0 
L 17.796875 0 
L 17.796875 1.203125 
C 12.296875 1.203125 11.90625 5.90625 11.90625 9.1875 
L 12 41.0625 
C 12.703125 37.65625 14.796875 33.875 16.09375 30.375 
L 24.203125 9.6875 
C 25.09375 7.1875 26.09375 4.8125 27.09375 2.3125 
C 27.296875 1.609375 27.59375 0.109375 28.5 0 
C 29.59375 0 31.703125 6.5 32.796875 9.59375 
C 36.59375 18.890625 40 28.375 43.796875 37.65625 
C 44.296875 38.859375 44.90625 40.15625 45.203125 41.453125 
L 45.296875 5.3125 
C 45.296875 1.703125 43.296875 1.203125 40.796875 1.203125 
L 39.40625 1.203125 
L 39.40625 0 
L 55.09375 0 
L 55.09375 1.203125 
L 53.703125 1.203125 
C 51.203125 1.203125 49.203125 1.703125 49.203125 5.203125 
L 49.203125 37.859375 
C 49.203125 41.359375 51.296875 41.859375 53.703125 41.859375 
L 55.09375 41.859375 
L 55.09375 42.953125 
L 45.90625 42.953125 
L 44.90625 42.765625 
L 44.296875 41.953125 
L 29.90625 5.09375 
L 16.296875 40.0625 
L 15 42.765625 
L 13.90625 42.953125 
z
" id="Computer_Modern_Roman-236"/>
      <path d="M 8.796875 23.8125 
L 35.09375 23.8125 
C 35.296875 23.8125 35.703125 23.703125 36.09375 23.703125 
C 36.796875 23.703125 37.09375 24.109375 37.09375 24.703125 
C 37.09375 33.65625 32.796875 44 21.59375 44 
C 9.59375 44 3.703125 31.734375 3.703125 21.953125 
C 3.703125 12.15625 9.203125 1.09375 21.09375 -0.40625 
C 21.5 -0.40625 21.90625 -0.5 22.296875 -0.5 
C 29.203125 -0.5 34.5 4.265625 36.796875 10.71875 
C 36.90625 11.015625 37 11.40625 37 11.703125 
C 37 12 36.90625 12.296875 36.5 12.296875 
C 35.5 12.296875 35.40625 10.71875 35.09375 9.8125 
C 33.09375 5.0625 28.796875 0.890625 23.203125 0.890625 
C 19 0.890625 15 3.28125 12.703125 6.640625 
C 9 11.59375 8.796875 17.953125 8.796875 23.8125 
z
M 8.90625 25 
C 9.09375 32.859375 13 42.8125 21.40625 42.8125 
C 28.40625 42.8125 31.40625 35.375 32.203125 29.53125 
C 32.296875 28.015625 32.296875 26.515625 32.5 25 
z
" id="Computer_Modern_Roman-229"/>
      <path d="M 4.5 42.96875 
L 4.5 40.75 
L 5.796875 40.75 
C 9 40.75 10.40625 39.4375 10.40625 36.34375 
L 10.40625 -11.421875 
C 10.40625 -12.109375 10.5 -12.78125 10.5 -13.46875 
C 10.5 -16.59375 8 -16.796875 5.40625 -16.796875 
L 4.5 -16.796875 
L 4.5 -19 
L 20.40625 -19 
L 20.40625 -16.796875 
L 19 -16.796875 
C 16.703125 -16.796875 14.5 -16.5 14.5 -13.34375 
L 14.59375 7.359375 
C 16.703125 2.109375 22.796875 -0.5 27 -0.5 
C 38.09375 -0.5 45.5 10.796875 45.5 21.875 
C 45.5 31.75 39.59375 44.046875 28.09375 44.046875 
C 22.703125 44.046875 16.40625 40.625 14.5 35.90625 
L 14.40625 44.046875 
z
M 40.296875 19.96875 
C 39.796875 12.1875 35.59375 0.703125 26.703125 0.703125 
C 21.40625 0.703125 14.40625 5.453125 14.40625 11.703125 
C 14.40625 12.3125 14.5 12.921875 14.5 13.53125 
L 14.5 28.453125 
C 14.5 29.453125 14.40625 30.46875 14.40625 31.46875 
C 14.40625 37.109375 21.203125 42.765625 27.09375 42.765625 
C 36.703125 42.765625 40.40625 29.65625 40.40625 21.78125 
C 40.40625 21.171875 40.40625 20.578125 40.296875 19.96875 
z
" id="Computer_Modern_Roman-240"/>
      <path d="M 3.09375 43 
L 2.203125 27.90625 
L 3.5 27.90625 
C 3.703125 31.703125 3.796875 36.703125 5.90625 39.3125 
C 8 41.5 11.296875 41.8125 14.09375 41.8125 
L 17.59375 41.8125 
C 20.09375 41.8125 20.296875 40 20.296875 38.203125 
L 20.296875 5.90625 
C 20.296875 1.609375 18.09375 1.203125 12 1.203125 
L 12 0 
L 32.703125 0 
L 32.703125 1.203125 
L 30.203125 1.203125 
C 27.09375 1.203125 24.40625 1.609375 24.40625 5.90625 
L 24.40625 38.203125 
C 24.40625 40 24.59375 41.8125 27.09375 41.8125 
L 30.59375 41.8125 
C 34.703125 41.8125 39.59375 41.109375 40.40625 35.3125 
C 40.90625 32.90625 41.09375 30.40625 41.203125 27.90625 
L 42.5 27.90625 
L 41.59375 43 
z
" id="Computer_Modern_Roman-242"/>
      <path d="M 4.5 42.953125 
L 4.5 41.859375 
L 5.90625 41.859375 
C 8.296875 41.859375 10.40625 41.359375 10.40625 37.859375 
L 10.40625 5.203125 
C 10.40625 1.703125 8.40625 1.203125 5.90625 1.203125 
L 4.5 1.203125 
L 4.5 0 
L 20.40625 0 
L 20.40625 1.203125 
L 19 1.203125 
C 16.796875 1.203125 15 1.5 14.5 4.203125 
L 14.5 4.90625 
C 14.5 6.203125 15.703125 7.3125 16.40625 8.3125 
C 20.796875 14.890625 25.5 21.390625 30.09375 27.875 
L 33.296875 32.46875 
C 33.90625 33.375 34.59375 34.171875 35.09375 35.171875 
L 35.203125 5.203125 
C 35.203125 1.609375 33 1.203125 30.703125 1.203125 
L 29.296875 1.203125 
L 29.296875 0 
L 45.203125 0 
L 45.203125 1.203125 
L 43.796875 1.203125 
C 41.296875 1.203125 39.296875 1.703125 39.296875 5.203125 
L 39.296875 37.859375 
C 39.296875 41.359375 41.40625 41.859375 43.796875 41.859375 
L 45.203125 41.859375 
L 45.203125 42.953125 
L 29.296875 42.953125 
L 29.296875 41.859375 
L 30.703125 41.859375 
C 32.90625 41.859375 34.703125 41.453125 35.203125 38.765625 
L 35.203125 38.0625 
C 35.203125 36.765625 34 35.65625 33.296875 34.65625 
C 28.90625 28.078125 24.203125 21.578125 19.59375 15.09375 
L 16.40625 10.484375 
C 15.796875 9.59375 15.09375 8.796875 14.59375 7.796875 
L 14.5 37.859375 
C 14.5 41.15625 16.40625 41.859375 19 41.859375 
L 20.40625 41.859375 
L 20.40625 42.953125 
L 15.59375 42.953125 
z
" id="Computer_Modern_Roman-232"/>
      <path d="M 4.5 42.953125 
L 4.5 41.859375 
L 5.90625 41.859375 
C 8.296875 41.859375 10.40625 41.359375 10.40625 37.859375 
L 10.40625 5.203125 
C 10.40625 1.703125 8.40625 1.203125 5.90625 1.203125 
L 4.5 1.203125 
L 4.5 0 
L 34 0 
C 38.59375 0 43 -0.5 44.703125 -7.109375 
C 45.296875 -9.984375 45.5 -13.03125 45.703125 -16 
L 47 -16 
L 45.703125 1.203125 
L 44.296875 1.203125 
C 41.796875 1.203125 39.296875 1.5 39.296875 5.203125 
L 39.296875 37.953125 
C 39.296875 41.359375 41.40625 41.859375 43.796875 41.859375 
L 45.203125 41.859375 
L 45.203125 42.953125 
L 29.296875 42.953125 
L 29.296875 41.859375 
L 30.703125 41.859375 
C 33.09375 41.859375 35.203125 41.359375 35.203125 37.875 
L 35.203125 4.390625 
C 35.203125 2.40625 34.40625 1.203125 32.203125 1.203125 
C 31.40625 1.203125 30.59375 1.203125 30 1.203125 
L 16.90625 1.203125 
C 15.09375 1.203125 14.59375 2.609375 14.5 3.90625 
L 14.5 37.5625 
C 14.5 41.453125 16.59375 41.859375 19.203125 41.859375 
L 20.40625 41.859375 
L 20.40625 42.953125 
L 15.703125 42.953125 
z
" id="Computer_Modern_Roman-246"/>
      <path d="M 4.5 43 
L 4.5 42 
L 5.90625 42 
C 8.296875 42 10.40625 41.5 10.40625 37.96875 
L 10.40625 5.03125 
C 10.40625 1.5 8.40625 1 5.90625 1 
L 4.5 1 
L 4.5 0 
L 27.296875 0 
C 33.59375 0 41.796875 3.9375 41.796875 11.875 
C 41.796875 16.109375 38.796875 19.828125 35.203125 21.84375 
C 31.296875 23.953125 27.203125 23.953125 22.90625 23.953125 
L 14.5 23.953125 
L 14.5 37.796875 
C 14.5 41.28125 16.203125 42 19.09375 42 
L 20.40625 42 
L 20.40625 43 
L 15.59375 43 
z
M 14.5 22.859375 
L 24 22.859375 
C 30.40625 22.859375 36.703125 18.640625 36.703125 11.921875 
L 36.703125 11.53125 
C 36.703125 5.109375 30.203125 1 24.296875 1 
L 16.90625 1 
C 14.5 1 14.5 3.09375 14.5 5.515625 
z
M 44.296875 43 
L 44.296875 42 
L 45.703125 42 
C 48.09375 42 50.203125 41.5 50.203125 38.0625 
L 50.203125 4.9375 
C 50.203125 1.5 48.203125 1 45.703125 1 
L 44.296875 1 
L 44.296875 0 
L 60.203125 0 
L 60.203125 1 
L 58.796875 1 
C 56.296875 1 54.296875 1.5 54.296875 5.03125 
L 54.296875 37.96875 
C 54.296875 41.5 56.40625 42 58.796875 42 
L 60.203125 42 
L 60.203125 43 
z
" id="Computer_Modern_Roman-251"/>
     </defs>
     <g transform="translate(187.606529 321.283524)scale(0.14 -0.14)">
      <use transform="scale(0.996264)" xlink:href="#Computer_Modern_Roman-208"/>
      <use transform="translate(58.189747 0)scale(0.996264)" xlink:href="#Computer_Modern_Roman-224"/>
      <use transform="translate(102.768214 0)scale(0.996264)" xlink:href="#Computer_Modern_Roman-231"/>
      <use transform="translate(142.386613 0)scale(0.996264)" xlink:href="#Computer_Modern_Roman-236"/>
      <use transform="translate(201.845147 0)scale(0.996264)" xlink:href="#Computer_Modern_Roman-229"/>
      <use transform="translate(241.463546 0)scale(0.996264)" xlink:href="#Computer_Modern_Roman-240"/>
      <use transform="translate(320.700267 0)scale(0.996264)" xlink:href="#Computer_Modern_Roman-236"/>
      <use transform="translate(380.158801 0)scale(0.996264)" xlink:href="#Computer_Modern_Roman-224"/>
      <use transform="translate(424.737268 0)scale(0.996264)" xlink:href="#Computer_Modern_Roman-242"/>
      <use transform="translate(469.315734 0)scale(0.996264)" xlink:href="#Computer_Modern_Roman-240"/>
      <use transform="translate(518.854163 0)scale(0.996264)" xlink:href="#Computer_Modern_Roman-232"/>
      <use transform="translate(568.392591 0)scale(0.996264)" xlink:href="#Computer_Modern_Roman-246"/>
      <use transform="translate(617.931019 0)scale(0.996264)" xlink:href="#Computer_Modern_Roman-251"/>
     </g>
    </g>
   </g>
   <g id="matplotlib.axis_2">
    <g id="ytick_1">
     <g id="line2d_6">
      <defs>
       <path d="M 0 0 
L -3.5 0 
" id="m4a29eaf551" style="stroke:#000000;stroke-width:0.8;"/>
      </defs>
      <g>
       <use style="stroke:#000000;stroke-width:0.8;" x="58.5" xlink:href="#m4a29eaf551" y="266.24203"/>
      </g>
     </g>
     <g id="text_7">
      <!-- $10^{0}$ -->
      <g transform="translate(32.825796 271.045063)scale(0.14 -0.14)">
       <use transform="scale(0.996264)" xlink:href="#CMR17-49"/>
       <use transform="translate(45.690477 0)scale(0.996264)" xlink:href="#CMR17-48"/>
       <use transform="translate(91.380954 36.153639)scale(0.697382)" xlink:href="#CMR17-48"/>
      </g>
     </g>
    </g>
    <g id="ytick_2">
     <g id="line2d_7">
      <g>
       <use style="stroke:#000000;stroke-width:0.8;" x="58.5" xlink:href="#m4a29eaf551" y="209.448174"/>
      </g>
     </g>
     <g id="text_8">
      <!-- $10^{1}$ -->
      <g transform="translate(32.825796 214.251208)scale(0.14 -0.14)">
       <use transform="scale(0.996264)" xlink:href="#CMR17-49"/>
       <use transform="translate(45.690477 0)scale(0.996264)" xlink:href="#CMR17-48"/>
       <use transform="translate(91.380954 36.153639)scale(0.697382)" xlink:href="#CMR17-49"/>
      </g>
     </g>
    </g>
    <g id="ytick_3">
     <g id="line2d_8">
      <g>
       <use style="stroke:#000000;stroke-width:0.8;" x="58.5" xlink:href="#m4a29eaf551" y="152.654319"/>
      </g>
     </g>
     <g id="text_9">
      <!-- $10^{2}$ -->
      <g transform="translate(32.825796 157.457353)scale(0.14 -0.14)">
       <use transform="scale(0.996264)" xlink:href="#CMR17-49"/>
       <use transform="translate(45.690477 0)scale(0.996264)" xlink:href="#CMR17-48"/>
       <use transform="translate(91.380954 36.153639)scale(0.697382)" xlink:href="#CMR17-50"/>
      </g>
     </g>
    </g>
    <g id="ytick_4">
     <g id="line2d_9">
      <g>
       <use style="stroke:#000000;stroke-width:0.8;" x="58.5" xlink:href="#m4a29eaf551" y="95.860464"/>
      </g>
     </g>
     <g id="text_10">
      <!-- $10^{3}$ -->
      <defs>
       <path d="M 22.09375 33.703125 
C 31 33.703125 34.90625 25.96875 34.90625 17.03125 
C 34.90625 5 28.5 0.390625 22.703125 0.390625 
C 17.40625 0.390625 8.796875 3.03125 6.09375 10.828125 
C 6.59375 10.625 7.09375 10.625 7.59375 10.625 
C 10 10.625 11.796875 12.21875 11.796875 14.8125 
C 11.796875 17.703125 9.59375 19 7.59375 19 
C 5.90625 19 3.296875 18.203125 3.296875 14.46875 
C 3.296875 5.234375 12.296875 -2 22.90625 -2 
C 34 -2 42.5 6.71875 42.5 16.953125 
C 42.5 26.671875 34.5 33.703125 25 34.796875 
C 32.59375 36.375 39.90625 43.0625 39.90625 52.015625 
C 39.90625 59.6875 32 65.296875 23 65.296875 
C 13.90625 65.296875 5.90625 59.828125 5.90625 52.015625 
C 5.90625 48.59375 8.5 48 9.796875 48 
C 11.90625 48 13.703125 49.296875 13.703125 51.890625 
C 13.703125 54.46875 11.90625 55.765625 9.796875 55.765625 
C 9.40625 55.765625 8.90625 55.765625 8.5 55.578125 
C 11.40625 61.859375 19.296875 63 22.796875 63 
C 26.296875 63 32.90625 61.328125 32.90625 51.875 
C 32.90625 49.109375 32.5 44.1875 29.09375 39.84375 
C 26.09375 36 22.703125 36 19.40625 35.6875 
C 18.90625 35.6875 16.59375 35.453125 16.203125 35.453125 
C 15.5 35.359375 15.09375 35.265625 15.09375 34.5 
C 15.09375 33.796875 15.203125 33.703125 17.203125 33.703125 
z
" id="CMR17-51"/>
      </defs>
      <g transform="translate(32.825796 100.663497)scale(0.14 -0.14)">
       <use transform="scale(0.996264)" xlink:href="#CMR17-49"/>
       <use transform="translate(45.690477 0)scale(0.996264)" xlink:href="#CMR17-48"/>
       <use transform="translate(91.380954 36.153639)scale(0.697382)" xlink:href="#CMR17-51"/>
      </g>
     </g>
    </g>
    <g id="ytick_5">
     <g id="line2d_10">
      <g>
       <use style="stroke:#000000;stroke-width:0.8;" x="58.5" xlink:href="#m4a29eaf551" y="39.066608"/>
      </g>
     </g>
     <g id="text_11">
      <!-- $10^{4}$ -->
      <defs>
       <path d="M 33.59375 64.40625 
C 33.59375 66.5 33.5 66.5 31.703125 66.5 
L 2 19.59375 
L 2 17 
L 27.796875 17 
L 27.796875 7.140625 
C 27.796875 3.5 27.59375 2.5 20.59375 2.5 
L 18.703125 2.5 
L 18.703125 0 
C 21.90625 0 27.296875 0 30.703125 0 
C 34.09375 0 39.5 0 42.703125 0 
L 42.703125 2.5 
L 40.796875 2.5 
C 33.796875 2.5 33.59375 3.5 33.59375 7.140625 
L 33.59375 17 
L 43.796875 17 
L 43.796875 19.59375 
L 33.59375 19.59375 
z
M 28.09375 57.859375 
L 28.09375 19.59375 
L 4 19.59375 
z
" id="CMR17-52"/>
      </defs>
      <g transform="translate(32.825796 43.869642)scale(0.14 -0.14)">
       <use transform="scale(0.996264)" xlink:href="#CMR17-49"/>
       <use transform="translate(45.690477 0)scale(0.996264)" xlink:href="#CMR17-48"/>
       <use transform="translate(91.380954 36.153639)scale(0.697382)" xlink:href="#CMR17-52"/>
      </g>
     </g>
    </g>
    <g id="ytick_6">
     <g id="line2d_11">
      <defs>
       <path d="M 0 0 
L -2 0 
" id="mdabff8e67f" style="stroke:#000000;stroke-width:0.6;"/>
      </defs>
      <g>
       <use style="stroke:#000000;stroke-width:0.6;" x="58.5" xlink:href="#mdabff8e67f" y="283.338684"/>
      </g>
     </g>
    </g>
    <g id="ytick_7">
     <g id="line2d_12">
      <g>
       <use style="stroke:#000000;stroke-width:0.6;" x="58.5" xlink:href="#mdabff8e67f" y="278.841676"/>
      </g>
     </g>
    </g>
    <g id="ytick_8">
     <g id="line2d_13">
      <g>
       <use style="stroke:#000000;stroke-width:0.6;" x="58.5" xlink:href="#mdabff8e67f" y="275.039509"/>
      </g>
     </g>
    </g>
    <g id="ytick_9">
     <g id="line2d_14">
      <g>
       <use style="stroke:#000000;stroke-width:0.6;" x="58.5" xlink:href="#mdabff8e67f" y="271.745923"/>
      </g>
     </g>
    </g>
    <g id="ytick_10">
     <g id="line2d_15">
      <g>
       <use style="stroke:#000000;stroke-width:0.6;" x="58.5" xlink:href="#mdabff8e67f" y="268.840774"/>
      </g>
     </g>
    </g>
    <g id="ytick_11">
     <g id="line2d_16">
      <g>
       <use style="stroke:#000000;stroke-width:0.6;" x="58.5" xlink:href="#mdabff8e67f" y="249.145376"/>
      </g>
     </g>
    </g>
    <g id="ytick_12">
     <g id="line2d_17">
      <g>
       <use style="stroke:#000000;stroke-width:0.6;" x="58.5" xlink:href="#mdabff8e67f" y="239.144474"/>
      </g>
     </g>
    </g>
    <g id="ytick_13">
     <g id="line2d_18">
      <g>
       <use style="stroke:#000000;stroke-width:0.6;" x="58.5" xlink:href="#mdabff8e67f" y="232.048722"/>
      </g>
     </g>
    </g>
    <g id="ytick_14">
     <g id="line2d_19">
      <g>
       <use style="stroke:#000000;stroke-width:0.6;" x="58.5" xlink:href="#mdabff8e67f" y="226.544829"/>
      </g>
     </g>
    </g>
    <g id="ytick_15">
     <g id="line2d_20">
      <g>
       <use style="stroke:#000000;stroke-width:0.6;" x="58.5" xlink:href="#mdabff8e67f" y="222.04782"/>
      </g>
     </g>
    </g>
    <g id="ytick_16">
     <g id="line2d_21">
      <g>
       <use style="stroke:#000000;stroke-width:0.6;" x="58.5" xlink:href="#mdabff8e67f" y="218.245654"/>
      </g>
     </g>
    </g>
    <g id="ytick_17">
     <g id="line2d_22">
      <g>
       <use style="stroke:#000000;stroke-width:0.6;" x="58.5" xlink:href="#mdabff8e67f" y="214.952068"/>
      </g>
     </g>
    </g>
    <g id="ytick_18">
     <g id="line2d_23">
      <g>
       <use style="stroke:#000000;stroke-width:0.6;" x="58.5" xlink:href="#mdabff8e67f" y="212.046919"/>
      </g>
     </g>
    </g>
    <g id="ytick_19">
     <g id="line2d_24">
      <g>
       <use style="stroke:#000000;stroke-width:0.6;" x="58.5" xlink:href="#mdabff8e67f" y="192.35152"/>
      </g>
     </g>
    </g>
    <g id="ytick_20">
     <g id="line2d_25">
      <g>
       <use style="stroke:#000000;stroke-width:0.6;" x="58.5" xlink:href="#mdabff8e67f" y="182.350619"/>
      </g>
     </g>
    </g>
    <g id="ytick_21">
     <g id="line2d_26">
      <g>
       <use style="stroke:#000000;stroke-width:0.6;" x="58.5" xlink:href="#mdabff8e67f" y="175.254866"/>
      </g>
     </g>
    </g>
    <g id="ytick_22">
     <g id="line2d_27">
      <g>
       <use style="stroke:#000000;stroke-width:0.6;" x="58.5" xlink:href="#mdabff8e67f" y="169.750973"/>
      </g>
     </g>
    </g>
    <g id="ytick_23">
     <g id="line2d_28">
      <g>
       <use style="stroke:#000000;stroke-width:0.6;" x="58.5" xlink:href="#mdabff8e67f" y="165.253965"/>
      </g>
     </g>
    </g>
    <g id="ytick_24">
     <g id="line2d_29">
      <g>
       <use style="stroke:#000000;stroke-width:0.6;" x="58.5" xlink:href="#mdabff8e67f" y="161.451799"/>
      </g>
     </g>
    </g>
    <g id="ytick_25">
     <g id="line2d_30">
      <g>
       <use style="stroke:#000000;stroke-width:0.6;" x="58.5" xlink:href="#mdabff8e67f" y="158.158212"/>
      </g>
     </g>
    </g>
    <g id="ytick_26">
     <g id="line2d_31">
      <g>
       <use style="stroke:#000000;stroke-width:0.6;" x="58.5" xlink:href="#mdabff8e67f" y="155.253063"/>
      </g>
     </g>
    </g>
    <g id="ytick_27">
     <g id="line2d_32">
      <g>
       <use style="stroke:#000000;stroke-width:0.6;" x="58.5" xlink:href="#mdabff8e67f" y="135.557665"/>
      </g>
     </g>
    </g>
    <g id="ytick_28">
     <g id="line2d_33">
      <g>
       <use style="stroke:#000000;stroke-width:0.6;" x="58.5" xlink:href="#mdabff8e67f" y="125.556763"/>
      </g>
     </g>
    </g>
    <g id="ytick_29">
     <g id="line2d_34">
      <g>
       <use style="stroke:#000000;stroke-width:0.6;" x="58.5" xlink:href="#mdabff8e67f" y="118.461011"/>
      </g>
     </g>
    </g>
    <g id="ytick_30">
     <g id="line2d_35">
      <g>
       <use style="stroke:#000000;stroke-width:0.6;" x="58.5" xlink:href="#mdabff8e67f" y="112.957118"/>
      </g>
     </g>
    </g>
    <g id="ytick_31">
     <g id="line2d_36">
      <g>
       <use style="stroke:#000000;stroke-width:0.6;" x="58.5" xlink:href="#mdabff8e67f" y="108.460109"/>
      </g>
     </g>
    </g>
    <g id="ytick_32">
     <g id="line2d_37">
      <g>
       <use style="stroke:#000000;stroke-width:0.6;" x="58.5" xlink:href="#mdabff8e67f" y="104.657943"/>
      </g>
     </g>
    </g>
    <g id="ytick_33">
     <g id="line2d_38">
      <g>
       <use style="stroke:#000000;stroke-width:0.6;" x="58.5" xlink:href="#mdabff8e67f" y="101.364357"/>
      </g>
     </g>
    </g>
    <g id="ytick_34">
     <g id="line2d_39">
      <g>
       <use style="stroke:#000000;stroke-width:0.6;" x="58.5" xlink:href="#mdabff8e67f" y="98.459208"/>
      </g>
     </g>
    </g>
    <g id="ytick_35">
     <g id="line2d_40">
      <g>
       <use style="stroke:#000000;stroke-width:0.6;" x="58.5" xlink:href="#mdabff8e67f" y="78.763809"/>
      </g>
     </g>
    </g>
    <g id="ytick_36">
     <g id="line2d_41">
      <g>
       <use style="stroke:#000000;stroke-width:0.6;" x="58.5" xlink:href="#mdabff8e67f" y="68.762908"/>
      </g>
     </g>
    </g>
    <g id="ytick_37">
     <g id="line2d_42">
      <g>
       <use style="stroke:#000000;stroke-width:0.6;" x="58.5" xlink:href="#mdabff8e67f" y="61.667155"/>
      </g>
     </g>
    </g>
    <g id="ytick_38">
     <g id="line2d_43">
      <g>
       <use style="stroke:#000000;stroke-width:0.6;" x="58.5" xlink:href="#mdabff8e67f" y="56.163262"/>
      </g>
     </g>
    </g>
    <g id="ytick_39">
     <g id="line2d_44">
      <g>
       <use style="stroke:#000000;stroke-width:0.6;" x="58.5" xlink:href="#mdabff8e67f" y="51.666254"/>
      </g>
     </g>
    </g>
    <g id="ytick_40">
     <g id="line2d_45">
      <g>
       <use style="stroke:#000000;stroke-width:0.6;" x="58.5" xlink:href="#mdabff8e67f" y="47.864088"/>
      </g>
     </g>
    </g>
    <g id="ytick_41">
     <g id="line2d_46">
      <g>
       <use style="stroke:#000000;stroke-width:0.6;" x="58.5" xlink:href="#mdabff8e67f" y="44.570501"/>
      </g>
     </g>
    </g>
    <g id="ytick_42">
     <g id="line2d_47">
      <g>
       <use style="stroke:#000000;stroke-width:0.6;" x="58.5" xlink:href="#mdabff8e67f" y="41.665352"/>
      </g>
     </g>
    </g>
    <g id="text_12">
     <!-- Время (мс) -->
     <defs>
      <path d="M 7.40625 68 
L 7.40625 66.109375 
L 9.09375 66.109375 
C 11.703125 66.109375 13.796875 65.8125 13.796875 61.90625 
L 13.796875 6.5 
C 13.796875 2.59375 12.09375 2.296875 7.40625 2.296875 
L 7.40625 0 
L 32.296875 0 
C 34 0 35.59375 0 37.296875 0 
C 46.796875 0 58.40625 5.765625 58.40625 18.015625 
C 58.40625 27.671875 49.5 35.546875 39.90625 35.546875 
C 46.5 37.359375 55.90625 40.5 55.90625 51.515625 
C 55.90625 61.328125 46.703125 68 37.296875 68 
z
M 18.5 34.765625 
L 35.703125 34.765625 
C 38.59375 34.765625 41.5 34.765625 44.09375 33.265625 
C 49.5 30.390625 52.796875 24.515625 52.796875 18.53125 
C 52.796875 8.859375 44.59375 2.296875 34.796875 2.296875 
C 33.296875 2.296875 31.703125 2.296875 30.203125 2.296875 
L 21.203125 2.296875 
C 19.296875 2.296875 18.5 3.390625 18.5 5.1875 
z
M 18.5 36.046875 
L 18.5 62.8125 
C 18.5 64.609375 18.90625 66.109375 21.203125 66.109375 
L 29.796875 66.109375 
C 31.296875 66.109375 32.796875 66.109375 34.40625 66.109375 
C 41.59375 66.109375 50.5 61.90625 50.5 51.421875 
C 50.5 43.734375 44 37.546875 36.59375 36.34375 
C 35 36.046875 33.296875 36.046875 31.703125 36.046875 
z
" id="Computer_Modern_Roman-194"/>
      <path d="M 21 21.96875 
C 19.296875 19.34375 17.296875 16.84375 15.40625 14.34375 
C 11.796875 9.4375 7.40625 1.40625 1.5 1.40625 
L 1.5 0 
L 15.59375 0 
L 15.59375 1.203125 
L 14.703125 1.203125 
C 13.796875 1.203125 12.296875 1.40625 12.296875 2.484375 
C 12.296875 4.390625 16 8.65625 17.90625 11.140625 
L 23.296875 18.578125 
C 24.40625 19.984375 25 21.765625 26.796875 21.765625 
C 27.296875 21.765625 27.90625 21.765625 28.296875 21.765625 
L 34.09375 21.765625 
L 34.09375 4.1875 
C 33.703125 1.40625 31.59375 1.203125 29.40625 1.203125 
L 28.203125 1.203125 
L 28.203125 0 
L 44 0 
L 44 1.203125 
L 42.59375 1.203125 
C 40.09375 1.203125 38.09375 1.703125 38.09375 5.203125 
L 38.09375 37.859375 
C 38.09375 41.359375 40.203125 41.859375 42.59375 41.859375 
L 44 41.859375 
L 44 42.953125 
L 26.90625 42.953125 
C 20.703125 42.953125 12.203125 42.953125 8 37.625 
C 6.796875 36.125 6.203125 34.421875 6.203125 32.71875 
C 6.203125 26.578125 12.296875 23.46875 17.59375 22.46875 
C 18.703125 22.171875 19.90625 21.96875 21 21.96875 
z
M 34.09375 23.046875 
C 32 23.046875 29.796875 23.046875 27.59375 23.046875 
C 20.90625 23.046875 11.296875 23.046875 11.296875 32.609375 
C 11.296875 41.140625 19.59375 41.859375 25.59375 41.859375 
L 31.703125 41.859375 
C 33.796875 41.859375 34.09375 39.953125 34.09375 37.859375 
z
" id="Computer_Modern_Roman-255"/>
      <path d="M 28.703125 74.5 
C 27.296875 73.703125 25.703125 72 24.59375 70.609375 
C 13.203125 58.203125 9.296875 40.90625 9.296875 24.5 
C 9.296875 8.609375 13.296875 -8 23.796875 -20.203125 
C 25.296875 -21.796875 27.90625 -25 29.203125 -25 
C 29.40625 -25 29.59375 -24.890625 29.59375 -24.703125 
C 29.59375 -24.09375 26.703125 -21.296875 25.296875 -19.59375 
C 15.796875 -7.296875 12.703125 9 12.703125 24.296875 
C 12.703125 41.703125 16.09375 59.109375 28.203125 72.609375 
C 28.59375 73 29.40625 73.609375 29.59375 74.203125 
L 29.59375 74.296875 
C 29.59375 74.5 29.40625 74.609375 29.203125 74.609375 
C 29 74.609375 28.796875 74.5 28.703125 74.5 
z
" id="Computer_Modern_Roman-40"/>
      <path d="M 34.703125 32.6875 
C 34.203125 32.796875 33.703125 32.890625 33.203125 32.890625 
C 31.59375 32.890625 30.40625 31.5 30.40625 30 
C 30.40625 28.5 31.59375 27 33.296875 27 
C 34.703125 27 36.09375 28 36.296875 29.5 
L 36.296875 30.09375 
C 36.296875 36.96875 30.703125 44.046875 22.5 44.046875 
C 11.203125 44.046875 4.203125 32.328125 4.203125 21.71875 
C 4.203125 11.21875 10.59375 0.5 21.296875 -0.5 
L 22.296875 -0.5 
C 29.40625 -0.5 35 4.015625 37 10.75 
C 37.09375 11.140625 37.203125 11.546875 37.203125 11.953125 
C 37.203125 12.25 37 12.34375 36.796875 12.34375 
C 35.703125 12.34375 35.5 10.453125 35.09375 9.4375 
C 33.296875 4.3125 28.5 0.796875 23.40625 0.796875 
C 13.90625 0.796875 9.296875 12.015625 9.296875 20.234375 
C 9.296875 28.640625 11.09375 42.765625 22.703125 42.765625 
C 28.296875 42.765625 33.40625 38.171875 34.703125 32.6875 
z
" id="Computer_Modern_Roman-241"/>
      <path d="M 5.203125 74.703125 
C 5.203125 74.703125 5.09375 74.703125 5.09375 74.59375 
C 5.09375 74.09375 8.09375 71.296875 9.5 69.5 
C 18.90625 57.203125 22.09375 41.203125 22.09375 25.90625 
C 22.09375 8.703125 19 -9 6.59375 -22.703125 
C 6.203125 -23.09375 5.40625 -23.703125 5.203125 -24.296875 
L 5.203125 -24.40625 
C 5.203125 -24.59375 5.296875 -24.59375 5.5 -24.59375 
C 7 -24.59375 8.90625 -22.09375 10.296875 -20.59375 
C 21.796875 -7.703125 25.5 9 25.5 25.5 
C 25.5 42.796875 20.59375 62.5 6.90625 74.203125 
C 6.703125 74.40625 6.09375 74.90625 5.59375 74.90625 
C 5.40625 74.90625 5.296875 74.796875 5.203125 74.703125 
z
" id="Computer_Modern_Roman-41"/>
     </defs>
     <g transform="translate(25.339723 198.701427)rotate(-90)scale(0.14 -0.14)">
      <use transform="scale(0.996264)" xlink:href="#Computer_Modern_Roman-194"/>
      <use transform="translate(63.149724 0)scale(0.996264)" xlink:href="#Computer_Modern_Roman-240"/>
      <use transform="translate(112.688152 0)scale(0.996264)" xlink:href="#Computer_Modern_Roman-229"/>
      <use transform="translate(152.306551 0)scale(0.996264)" xlink:href="#Computer_Modern_Roman-236"/>
      <use transform="translate(211.765085 0)scale(0.996264)" xlink:href="#Computer_Modern_Roman-255"/>
      <use transform="translate(289.761812 0)scale(0.996264)" xlink:href="#Computer_Modern_Roman-40"/>
      <use transform="translate(324.420158 0)scale(0.996264)" xlink:href="#Computer_Modern_Roman-236"/>
      <use transform="translate(383.878692 0)scale(0.996264)" xlink:href="#Computer_Modern_Roman-241"/>
      <use transform="translate(423.497091 0)scale(0.996264)" xlink:href="#Computer_Modern_Roman-41"/>
     </g>
    </g>
   </g>
   <g id="line2d_48">
    <path clip-path="url(#p5db88fe142)" d="M 74.986364 255.354765 
L 157.418182 205.791006 
L 239.85 155.072601 
L 322.281818 103.7464 
L 404.713636 50.22 
" style="fill:none;stroke:#1f77b4;stroke-linecap:square;stroke-width:1.5;"/>
    <defs>
     <path d="M 0 3 
C 0.795609 3 1.55874 2.683901 2.12132 2.12132 
C 2.683901 1.55874 3 0.795609 3 0 
C 3 -0.795609 2.683901 -1.55874 2.12132 -2.12132 
C 1.55874 -2.683901 0.795609 -3 0 -3 
C -0.795609 -3 -1.55874 -2.683901 -2.12132 -2.12132 
C -2.683901 -1.55874 -3 -0.795609 -3 0 
C -3 0.795609 -2.683901 1.55874 -2.12132 2.12132 
C -1.55874 2.683901 -0.795609 3 0 3 
z
" id="m5f4b530c61" style="stroke:#1f77b4;"/>
    </defs>
    <g clip-path="url(#p5db88fe142)">
     <use style="fill:#1f77b4;stroke:#1f77b4;" x="74.986364" xlink:href="#m5f4b530c61" y="255.354765"/>
     <use style="fill:#1f77b4;stroke:#1f77b4;" x="157.418182" xlink:href="#m5f4b530c61" y="205.791006"/>
     <use style="fill:#1f77b4;stroke:#1f77b4;" x="239.85" xlink:href="#m5f4b530c61" y="155.072601"/>
     <use style="fill:#1f77b4;stroke:#1f77b4;" x="322.281818" xlink:href="#m5f4b530c61" y="103.7464"/>
     <use style="fill:#1f77b4;stroke:#1f77b4;" x="404.713636" xlink:href="#m5f4b530c61" y="50.22"/>
    </g>
   </g>
   <g id="line2d_49">
    <path clip-path="url(#p5db88fe142)" d="M 74.986364 269.686071 
L 157.418182 222.556901 
L 239.85 171.75731 
L 322.281818 119.769096 
L 404.713636 65.720109 
" style="fill:none;stroke:#ff7f0e;stroke-linecap:square;stroke-width:1.5;"/>
    <defs>
     <path d="M 0 3 
C 0.795609 3 1.55874 2.683901 2.12132 2.12132 
C 2.683901 1.55874 3 0.795609 3 0 
C 3 -0.795609 2.683901 -1.55874 2.12132 -2.12132 
C 1.55874 -2.683901 0.795609 -3 0 -3 
C -0.795609 -3 -1.55874 -2.683901 -2.12132 -2.12132 
C -2.683901 -1.55874 -3 -0.795609 -3 0 
C -3 0.795609 -2.683901 1.55874 -2.12132 2.12132 
C -1.55874 2.683901 -0.795609 3 0 3 
z
" id="m2a15f32e44" style="stroke:#ff7f0e;"/>
    </defs>
    <g clip-path="url(#p5db88fe142)">
     <use style="fill:#ff7f0e;stroke:#ff7f0e;" x="74.986364" xlink:href="#m2a15f32e44" y="269.686071"/>
     <use style="fill:#ff7f0e;stroke:#ff7f0e;" x="157.418182" xlink:href="#m2a15f32e44" y="222.556901"/>
     <use style="fill:#ff7f0e;stroke:#ff7f0e;" x="239.85" xlink:href="#m2a15f32e44" y="171.75731"/>
     <use style="fill:#ff7f0e;stroke:#ff7f0e;" x="322.281818" xlink:href="#m2a15f32e44" y="119.769096"/>
     <use style="fill:#ff7f0e;stroke:#ff7f0e;" x="404.713636" xlink:href="#m2a15f32e44" y="65.720109"/>
    </g>
   </g>
   <g id="line2d_50">
    <path clip-path="url(#p5db88fe142)" d="M 74.986364 277.02 
L 157.418182 232.696257 
L 239.85 182.602575 
L 322.281818 129.611705 
L 404.713636 73.660919 
" style="fill:none;stroke:#2ca02c;stroke-linecap:square;stroke-width:1.5;"/>
    <defs>
     <path d="M 0 3 
C 0.795609 3 1.55874 2.683901 2.12132 2.12132 
C 2.683901 1.55874 3 0.795609 3 0 
C 3 -0.795609 2.683901 -1.55874 2.12132 -2.12132 
C 1.55874 -2.683901 0.795609 -3 0 -3 
C -0.795609 -3 -1.55874 -2.683901 -2.12132 -2.12132 
C -2.683901 -1.55874 -3 -0.795609 -3 0 
C -3 0.795609 -2.683901 1.55874 -2.12132 2.12132 
C -1.55874 2.683901 -0.795609 3 0 3 
z
" id="mb29903442b" style="stroke:#2ca02c;"/>
    </defs>
    <g clip-path="url(#p5db88fe142)">
     <use style="fill:#2ca02c;stroke:#2ca02c;" x="74.986364" xlink:href="#mb29903442b" y="277.02"/>
     <use style="fill:#2ca02c;stroke:#2ca02c;" x="157.418182" xlink:href="#mb29903442b" y="232.696257"/>
     <use style="fill:#2ca02c;stroke:#2ca02c;" x="239.85" xlink:href="#mb29903442b" y="182.602575"/>
     <use style="fill:#2ca02c;stroke:#2ca02c;" x="322.281818" xlink:href="#mb29903442b" y="129.611705"/>
     <use style="fill:#2ca02c;stroke:#2ca02c;" x="404.713636" xlink:href="#mb29903442b" y="73.660919"/>
    </g>
   </g>
   <g id="line2d_51">
    <path clip-path="url(#p5db88fe142)" d="M 74.986364 274.831716 
L 157.418182 231.56058 
L 239.85 182.534169 
L 322.281818 130.847138 
L 404.713636 74.382225 
" style="fill:none;stroke:#d62728;stroke-linecap:square;stroke-width:1.5;"/>
    <defs>
     <path d="M 0 3 
C 0.795609 3 1.55874 2.683901 2.12132 2.12132 
C 2.683901 1.55874 3 0.795609 3 0 
C 3 -0.795609 2.683901 -1.55874 2.12132 -2.12132 
C 1.55874 -2.683901 0.795609 -3 0 -3 
C -0.795609 -3 -1.55874 -2.683901 -2.12132 -2.12132 
C -2.683901 -1.55874 -3 -0.795609 -3 0 
C -3 0.795609 -2.683901 1.55874 -2.12132 2.12132 
C -1.55874 2.683901 -0.795609 3 0 3 
z
" id="mcd94f451c0" style="stroke:#d62728;"/>
    </defs>
    <g clip-path="url(#p5db88fe142)">
     <use style="fill:#d62728;stroke:#d62728;" x="74.986364" xlink:href="#mcd94f451c0" y="274.831716"/>
     <use style="fill:#d62728;stroke:#d62728;" x="157.418182" xlink:href="#mcd94f451c0" y="231.56058"/>
     <use style="fill:#d62728;stroke:#d62728;" x="239.85" xlink:href="#mcd94f451c0" y="182.534169"/>
     <use style="fill:#d62728;stroke:#d62728;" x="322.281818" xlink:href="#mcd94f451c0" y="130.847138"/>
     <use style="fill:#d62728;stroke:#d62728;" x="404.713636" xlink:href="#mcd94f451c0" y="74.382225"/>
    </g>
   </g>
   <g id="patch_3">
    <path d="M 58.5 288.36 
L 58.5 38.88 
" style="fill:none;stroke:#000000;stroke-linecap:square;stroke-linejoin:miter;stroke-width:0.8;"/>
   </g>
   <g id="patch_4">
    <path d="M 421.2 288.36 
L 421.2 38.88 
" style="fill:none;stroke:#000000;stroke-linecap:square;stroke-linejoin:miter;stroke-width:0.8;"/>
   </g>
   <g id="patch_5">
    <path d="M 58.5 288.36 
L 421.2 288.36 
" style="fill:none;stroke:#000000;stroke-linecap:square;stroke-linejoin:miter;stroke-width:0.8;"/>
   </g>
   <g id="patch_6">
    <path d="M 58.5 38.88 
L 421.2 38.88 
" style="fill:none;stroke:#000000;stroke-linecap:square;stroke-linejoin:miter;stroke-width:0.8;"/>
   </g>
   <g id="legend_1">
    <g id="patch_7">
     <path d="M 68.3 128.12556 
L 166.577317 128.12556 
Q 169.377317 128.12556 169.377317 125.32556 
L 169.377317 48.68 
Q 169.377317 45.88 166.577317 45.88 
L 68.3 45.88 
Q 65.5 45.88 65.5 48.68 
L 65.5 125.32556 
Q 65.5 128.12556 68.3 128.12556 
z
" style="fill:#ffffff;opacity:0.8;stroke:#cccccc;stroke-linejoin:miter;"/>
    </g>
    <g id="line2d_52">
     <path d="M 71.1 56.38 
L 99.1 56.38 
" style="fill:none;stroke:#1f77b4;stroke-linecap:square;stroke-width:1.5;"/>
    </g>
    <g id="line2d_53">
     <g>
      <use style="fill:#1f77b4;stroke:#1f77b4;" x="85.1" xlink:href="#m5f4b530c61" y="56.38"/>
     </g>
    </g>
    <g id="text_13">
     <!-- 1 поток -->
     <defs>
      <path d="M 9.5 56.796875 
C 10.90625 57 12.40625 57 13.796875 57.203125 
C 16.5 57.703125 18.90625 58.609375 21.203125 60.015625 
L 21.203125 6.5 
C 21.203125 2.703125 17.796875 2.109375 14.296875 2.109375 
C 12.796875 2.109375 11.296875 2.109375 10 2.109375 
L 10 0 
L 36.703125 0 
L 36.703125 2.109375 
C 35.296875 2.109375 33.796875 2.109375 32.296875 2.109375 
C 28.703125 2.109375 25.5 2.703125 25.5 6.5 
L 25.5 64.6875 
C 25.5 64.984375 25.40625 65.5 25.09375 65.5 
C 24.296875 65.5 22.59375 63.375 21.5 62.5625 
C 18.5 60.40625 14.59375 59.09375 11.09375 59.09375 
L 10.5 59.09375 
C 9.90625 59.09375 9.5 59 9.5 58.296875 
z
" id="Computer_Modern_Roman-49"/>
      <path d="M 4.5 42.953125 
L 4.5 41.859375 
L 5.90625 41.859375 
C 8.296875 41.859375 10.40625 41.359375 10.40625 37.859375 
L 10.40625 5.203125 
C 10.40625 1.703125 8.40625 1.203125 5.90625 1.203125 
L 4.5 1.203125 
L 4.5 0 
L 20.40625 0 
L 20.40625 1.203125 
L 19 1.203125 
C 16.59375 1.203125 14.5 1.703125 14.5 5.1875 
L 14.5 38.578125 
C 14.5 40.859375 15.5 41.859375 17.703125 41.859375 
C 18.40625 41.859375 19.09375 41.859375 19.59375 41.859375 
L 32.796875 41.859375 
C 34.59375 41.859375 35 40.5625 35.203125 39.15625 
L 35.203125 5.703125 
C 35.203125 1.609375 33.203125 1.203125 30.40625 1.203125 
L 29.296875 1.203125 
L 29.296875 0 
L 45.203125 0 
L 45.203125 1.203125 
L 43.796875 1.203125 
C 41.296875 1.203125 39.296875 1.703125 39.296875 5.203125 
L 39.296875 37.859375 
C 39.296875 41.359375 41.40625 41.859375 43.796875 41.859375 
L 45.203125 41.859375 
L 45.203125 42.953125 
z
" id="Computer_Modern_Roman-239"/>
      <path d="M 21.09375 44 
C 9.59375 42.59375 3.703125 31.90625 3.703125 21.5 
C 3.703125 10.90625 10.703125 -0.5 22.5 -0.5 
L 23.5 -0.5 
C 35 0.90625 41 11.5 41 21.59375 
C 41 31.796875 34.09375 44.09375 22.5 44.09375 
C 22 44.09375 21.59375 44 21.09375 44 
z
M 8.796875 19.90625 
L 8.796875 21.5 
C 8.796875 29 9.703125 37.421875 17.40625 41.609375 
C 18.703125 42.21875 20.203125 42.71875 21.703125 42.71875 
L 22.40625 42.71875 
C 32.09375 42.71875 35.90625 31.4375 35.90625 23.359375 
C 35.90625 15.46875 35.09375 4.203125 25.09375 1.203125 
C 24.203125 1 23.296875 0.796875 22.40625 0.796875 
C 15 0.796875 10.203125 8.203125 9.296875 15.296875 
C 9 16.796875 9 18.40625 8.796875 19.90625 
z
" id="Computer_Modern_Roman-238"/>
      <path d="M 4.5 42.953125 
L 4.5 41.859375 
L 5.90625 41.859375 
C 8.296875 41.859375 10.40625 41.359375 10.40625 37.859375 
L 10.40625 5.203125 
C 10.40625 1.703125 8.40625 1.203125 5.90625 1.203125 
L 4.5 1.203125 
L 4.5 0 
L 20.296875 0 
L 20.296875 1.203125 
L 19 1.203125 
C 16.09375 1.203125 14.40625 1.90625 14.40625 5.3125 
L 14.40625 16.390625 
C 14.40625 17.484375 14.703125 17.890625 15.5 18.6875 
L 17.09375 20.078125 
C 18.90625 21.671875 20.703125 23.46875 22.703125 24.875 
C 23.703125 22.96875 25.203125 21.28125 26.40625 19.46875 
C 29.203125 15.484375 32.203125 11.59375 34.90625 7.484375 
L 35.5 6.609375 
C 36 5.703125 36.796875 4.40625 36.796875 3.3125 
C 36.796875 1.90625 35.40625 1.203125 34.203125 1.203125 
L 34.203125 0 
L 48.203125 0 
L 48.203125 1.203125 
C 44 1.203125 41.40625 4.8125 39.296875 8.09375 
C 35.203125 13.796875 31.296875 19.390625 27.203125 25.078125 
C 26.703125 25.875 26.203125 26.671875 25.5 27.375 
L 25.5 27.46875 
C 30.203125 30.984375 34 35.625 39 38.84375 
C 41.09375 40.34375 43.5 41.859375 46.203125 41.859375 
L 46.203125 42.953125 
L 34 42.953125 
L 34 41.859375 
C 35 41.359375 35.296875 41.0625 35.296875 40.265625 
C 35.296875 37.15625 32.296875 35.15625 32.296875 35.15625 
C 30 32.96875 27.59375 31.078125 25.203125 28.96875 
C 21.59375 25.78125 18.09375 22.59375 14.40625 19.484375 
L 14.40625 36.859375 
C 14.40625 40.453125 15.296875 41.859375 19.09375 41.859375 
L 20.296875 41.859375 
L 20.296875 42.953125 
z
" id="Computer_Modern_Roman-234"/>
     </defs>
     <g transform="translate(110.3 61.28)scale(0.14 -0.14)">
      <use transform="scale(0.996264)" xlink:href="#Computer_Modern_Roman-49"/>
      <use transform="translate(74.27676 0)scale(0.996264)" xlink:href="#Computer_Modern_Roman-239"/>
      <use transform="translate(123.815188 0)scale(0.996264)" xlink:href="#Computer_Modern_Roman-238"/>
      <use transform="translate(168.393655 0)scale(0.996264)" xlink:href="#Computer_Modern_Roman-242"/>
      <use transform="translate(212.972122 0)scale(0.996264)" xlink:href="#Computer_Modern_Roman-238"/>
      <use transform="translate(257.550588 0)scale(0.996264)" xlink:href="#Computer_Modern_Roman-234"/>
     </g>
    </g>
    <g id="line2d_54">
     <path d="M 71.1 75.89139 
L 99.1 75.89139 
" style="fill:none;stroke:#ff7f0e;stroke-linecap:square;stroke-width:1.5;"/>
    </g>
    <g id="line2d_55">
     <g>
      <use style="fill:#ff7f0e;stroke:#ff7f0e;" x="85.1" xlink:href="#m2a15f32e44" y="75.89139"/>
     </g>
    </g>
    <g id="text_14">
     <!-- 2 потока -->
     <defs>
      <path d="M 6.09375 49.3125 
C 6.90625 56.671875 12.09375 63.796875 20.09375 63.796875 
C 28.796875 63.796875 34.90625 56.34375 34.90625 47.90625 
L 34.90625 47.09375 
C 34.296875 36.828125 27.40625 28.671875 21 21.328125 
L 5.5 3.328125 
C 5 2.625 4.5 2.21875 4.5 1 
L 4.5 0 
L 38.09375 0 
L 40.203125 14.171875 
L 38.90625 14.171875 
C 38.09375 9.53125 38.5 4.609375 34.296875 4.609375 
C 31.703125 4.609375 29.09375 4.3125 26.5 4.3125 
C 25 4.3125 23.59375 4.3125 22.203125 4.3125 
L 8 4.3125 
C 13.09375 9.953125 18.203125 15.8125 23.703125 21.140625 
C 31.09375 28.5 40.203125 36.46875 40.203125 47.859375 
C 40.203125 59.34375 31.09375 66 21.09375 66 
C 12.59375 66 6.703125 59.046875 5.09375 51.609375 
L 4.796875 50.109375 
C 4.703125 49.1875 4.5 48.09375 4.5 47.09375 
C 4.5 45.171875 5.203125 43.25 8.09375 43.25 
C 9.796875 43.5625 10.90625 44.875 10.90625 46.375 
C 10.90625 47.984375 9.703125 49.609375 7.90625 49.609375 
C 7.296875 49.609375 6.703125 49.546875 6.09375 49.3125 
z
" id="Computer_Modern_Roman-50"/>
     </defs>
     <g transform="translate(110.3 80.79139)scale(0.14 -0.14)">
      <use transform="scale(0.996264)" xlink:href="#Computer_Modern_Roman-50"/>
      <use transform="translate(74.27676 0)scale(0.996264)" xlink:href="#Computer_Modern_Roman-239"/>
      <use transform="translate(123.815188 0)scale(0.996264)" xlink:href="#Computer_Modern_Roman-238"/>
      <use transform="translate(168.393655 0)scale(0.996264)" xlink:href="#Computer_Modern_Roman-242"/>
      <use transform="translate(212.972122 0)scale(0.996264)" xlink:href="#Computer_Modern_Roman-238"/>
      <use transform="translate(257.550588 0)scale(0.996264)" xlink:href="#Computer_Modern_Roman-234"/>
      <use transform="translate(304.609028 0)scale(0.996264)" xlink:href="#Computer_Modern_Roman-224"/>
     </g>
    </g>
    <g id="line2d_56">
     <path d="M 71.1 95.40278 
L 99.1 95.40278 
" style="fill:none;stroke:#2ca02c;stroke-linecap:square;stroke-width:1.5;"/>
    </g>
    <g id="line2d_57">
     <g>
      <use style="fill:#2ca02c;stroke:#2ca02c;" x="85.1" xlink:href="#mb29903442b" y="95.40278"/>
     </g>
    </g>
    <g id="text_15">
     <!-- 4 потока -->
     <defs>
      <path d="M 2.5 17 
L 27.59375 17 
L 27.59375 6.125 
C 27.59375 2.984375 25.90625 2.203125 18.90625 2.203125 
L 18.90625 0 
L 40.703125 0 
L 40.703125 2.203125 
L 37.90625 2.203125 
C 34.796875 2.203125 32 2.59375 32 6.125 
L 32 17 
L 42.203125 17 
L 42.203125 19.1875 
L 32 19.1875 
L 32 65.09375 
C 32 65.484375 31.90625 66 31.203125 66 
C 30.296875 66 29.59375 64.5 29.296875 63.90625 
L 3.40625 20.6875 
C 2.796875 19.6875 2.5 19.1875 2.5 18.09375 
z
M 4 19.1875 
L 27.703125 58.890625 
L 27.703125 19.1875 
z
" id="Computer_Modern_Roman-52"/>
     </defs>
     <g transform="translate(110.3 100.30278)scale(0.14 -0.14)">
      <use transform="scale(0.996264)" xlink:href="#Computer_Modern_Roman-52"/>
      <use transform="translate(74.27676 0)scale(0.996264)" xlink:href="#Computer_Modern_Roman-239"/>
      <use transform="translate(123.815188 0)scale(0.996264)" xlink:href="#Computer_Modern_Roman-238"/>
      <use transform="translate(168.393655 0)scale(0.996264)" xlink:href="#Computer_Modern_Roman-242"/>
      <use transform="translate(212.972122 0)scale(0.996264)" xlink:href="#Computer_Modern_Roman-238"/>
      <use transform="translate(257.550588 0)scale(0.996264)" xlink:href="#Computer_Modern_Roman-234"/>
      <use transform="translate(304.609028 0)scale(0.996264)" xlink:href="#Computer_Modern_Roman-224"/>
     </g>
    </g>
    <g id="line2d_58">
     <path d="M 71.1 114.91417 
L 99.1 114.91417 
" style="fill:none;stroke:#d62728;stroke-linecap:square;stroke-width:1.5;"/>
    </g>
    <g id="line2d_59">
     <g>
      <use style="fill:#d62728;stroke:#d62728;" x="85.1" xlink:href="#mcd94f451c0" y="114.91417"/>
     </g>
    </g>
    <g id="text_16">
     <!-- 8 потока -->
     <defs>
      <path d="M 19.09375 34.6875 
C 11.59375 30.59375 4.90625 26.6875 3.703125 16.796875 
L 3.703125 15.796875 
C 3.703125 5.171875 13.59375 -0.5 22.59375 -0.5 
L 23.203125 -0.5 
C 32.296875 -0.5 41 6.75 41 16.5 
L 41 17.5 
C 40.5 24.3125 36.703125 28.109375 30.703125 32.40625 
C 29 33.609375 27.296875 35.109375 25.40625 36.109375 
C 31.796875 39.703125 38.5 44.40625 38.5 52.3125 
C 38.5 59.703125 31.296875 66.109375 22.5 66.109375 
C 15.09375 66.109375 6.203125 61 6.203125 51.109375 
C 6.203125 44.703125 10.09375 41.09375 15.40625 37.296875 
C 16.59375 36.390625 17.796875 35.390625 19.09375 34.6875 
z
M 6.5 14.703125 
C 6.5 15.109375 6.40625 15.609375 6.40625 16 
C 6.40625 23.203125 12.40625 30.109375 18.59375 33 
C 19 33.203125 19.59375 33.609375 20.09375 33.609375 
C 21.296875 33.609375 23.90625 31.109375 25.59375 29.90625 
C 30.703125 26.3125 38.203125 22.40625 38.203125 15.609375 
C 38.203125 7 30.59375 1.5 22.5 1.5 
C 14.796875 1.5 7.703125 6.109375 6.5 14.703125 
z
M 8.796875 52.3125 
C 8.796875 52.609375 8.703125 52.90625 8.703125 53.203125 
C 8.703125 60.203125 16.40625 64 22.09375 64 
C 28.703125 64 34.59375 60.40625 35.90625 53.109375 
C 35.90625 52.703125 36 52.3125 36 51.90625 
C 36 45.609375 30.59375 40.703125 25.796875 37.8125 
C 25.40625 37.5 24.90625 37.109375 24.40625 37.109375 
C 23.5 37.109375 21.203125 39.3125 19.796875 40.203125 
C 15.40625 43.609375 9.59375 46.203125 8.796875 52.3125 
z
" id="Computer_Modern_Roman-56"/>
     </defs>
     <g transform="translate(110.3 119.81417)scale(0.14 -0.14)">
      <use transform="scale(0.996264)" xlink:href="#Computer_Modern_Roman-56"/>
      <use transform="translate(74.27676 0)scale(0.996264)" xlink:href="#Computer_Modern_Roman-239"/>
      <use transform="translate(123.815188 0)scale(0.996264)" xlink:href="#Computer_Modern_Roman-238"/>
      <use transform="translate(168.393655 0)scale(0.996264)" xlink:href="#Computer_Modern_Roman-242"/>
      <use transform="translate(212.972122 0)scale(0.996264)" xlink:href="#Computer_Modern_Roman-238"/>
      <use transform="translate(257.550588 0)scale(0.996264)" xlink:href="#Computer_Modern_Roman-234"/>
      <use transform="translate(304.609028 0)scale(0.996264)" xlink:href="#Computer_Modern_Roman-224"/>
     </g>
    </g>
   </g>
  </g>
 </g>
 <defs>
  <clipPath id="p5db88fe142">
   <rect height="249.48" width="362.7" x="58.5" y="38.88"/>
  </clipPath>
 </defs>
</svg>
